<svg id="Группа_2" data-name="Группа 2" xmlns="http://www.w3.org/2000/svg" width="42.594" height="32.594" viewBox="0 0 42.594 32.594">
  <metadata><?xpacket begin="﻿" id="W5M0MpCehiHzreSzNTczkc9d"?>
<x:xmpmeta xmlns:x="adobe:ns:meta/" x:xmptk="Adobe XMP Core 5.6-c142 79.160924, 2017/07/13-01:06:39        ">
   <rdf:RDF xmlns:rdf="http://www.w3.org/1999/02/22-rdf-syntax-ns#">
      <rdf:Description rdf:about=""/>
   </rdf:RDF>
</x:xmpmeta>
                                                                                                    
                                                                                                    
                                                                                                    
                                                                                                    
                                                                                                    
                                                                                                    
                                                                                                    
                                                                                                    
                                                                                                    
                                                                                                    
                                                                                                    
                                                                                                    
                                                                                                    
                                                                                                    
                                                                                                    
                                                                                                    
                                                                                                    
                                                                                                    
                                                                                                    
                                                                                                    
                           
<?xpacket end="w"?></metadata>
<defs>
    <style>
      .cls-1 {
        fill: #99ac0d;
        fill-rule: evenodd;
      }
    </style>
  </defs>
  <path id="стереть" class="cls-1" d="M21.731,82.521a3.343,3.343,0,0,0,3.318.742l-0.513-1.6a1.608,1.608,0,0,1-1.687-.379,1.7,1.7,0,0,1-.588-1.212,1.784,1.784,0,0,1,.5-1.278,1.709,1.709,0,0,1,2.5-.136,1.614,1.614,0,0,1,.505,1.65l1.64,0.353a3.25,3.25,0,0,0-1.017-3.216A3.444,3.444,0,1,0,21.731,82.521Zm6.14-3.44-0.907,1.34,1.706,1.156-2.749,4.062,1.393,0.944,2.749-4.062,1.684,1.141,0.906-1.34Zm8.513,9.4a4.413,4.413,0,0,0,.358-0.6,3.434,3.434,0,0,0,.216-2.62,3.077,3.077,0,0,0-1.7-1.918,3.292,3.292,0,0,0-2.665-.18,3.6,3.6,0,0,0-2.12,4.443,3.5,3.5,0,0,0,1.917,2.008,3.24,3.24,0,0,0,3.169-.026L34.678,88.3a1.732,1.732,0,0,1-1.6-.045,1.664,1.664,0,0,1-1.127-1.9Zm-3.893-3.321a1.627,1.627,0,0,1,2.112-.448,1.579,1.579,0,0,1,.888,1.89Zm9.4,0.617a2.513,2.513,0,0,0-2.292.357l0.2-.743-1.623-.448-2.427,8.813L37.376,94.2l0.9-3.261a2.514,2.514,0,0,0,1.785,1.481,2.943,2.943,0,0,0,2.428-.36,3.66,3.66,0,0,0,1.3-4.721A2.958,2.958,0,0,0,41.89,85.776Zm-2.817,4.181a1.844,1.844,0,0,1-.137-1.419,1.791,1.791,0,0,1,.841-1.136,1.859,1.859,0,0,1,2.492.687,1.752,1.752,0,0,1,.153,1.41,1.8,1.8,0,0,1-.857,1.145A1.894,1.894,0,0,1,39.074,89.958Zm11.842,1.279a4.414,4.414,0,0,0,.125-0.683,3.432,3.432,0,0,0-.722-2.526,3.073,3.073,0,0,0-2.266-1.194,3.29,3.29,0,0,0-2.555.772,3.6,3.6,0,0,0-.415,4.9,3.5,3.5,0,0,0,2.5,1.2,3.239,3.239,0,0,0,2.954-1.143l-1.283-.9a1.732,1.732,0,0,1-1.512.523,1.662,1.662,0,0,1-1.725-1.382ZM46.1,89.506a1.626,1.626,0,0,1,1.817-1.164,1.577,1.577,0,0,1,1.5,1.454Zm4.522-2.254,0.1,1.617,2.059-.129,0.306,4.9,1.681-.105-0.306-4.9,2.033-.127-0.1-1.617Zm7.827,1.315-0.425-2.046-1.649.343,1.328,6.394,2.889-.6a2.233,2.233,0,1,0-.9-4.348Zm0.6,2.89-0.3-1.445,1.253-.26a0.753,0.753,0,0,1,.944.564,0.743,0.743,0,0,1-.644.881Z" transform="translate(-20.031 -76.5)"/>
  <path id="экран" class="cls-1" d="M25.322,95.047A3.319,3.319,0,0,0,21.9,94.9l0.774,1.449a1.6,1.6,0,0,1,1.808.08,1.7,1.7,0,0,1,.787,1.748l-1.882-1.17-0.8,1.285,1.882,1.17a1.693,1.693,0,0,1-1.915.069,1.631,1.631,0,0,1-.876-1.6l-1.64-.052a3.26,3.26,0,0,0,1.641,3.017,3.3,3.3,0,0,0,2.584.486,3.682,3.682,0,0,0,2.622-4.222A3.3,3.3,0,0,0,25.322,95.047Zm4.826,6.413,3.721-1.843-1.827-.834-3.231,1.68L30,97.852l-1.53-.7-2.706,5.935,1.53,0.7,1.229-2.694,0.93,3.68,1.779,0.812Zm7.4-.928a2.51,2.51,0,0,0-2.3.309l0.22-.737-1.612-.481-2.605,8.752,1.612,0.48,0.964-3.238a2.513,2.513,0,0,0,1.753,1.516,2.937,2.937,0,0,0,2.432-.31,3.655,3.655,0,0,0,1.4-4.688A2.952,2.952,0,0,0,37.548,100.532Zm-2.9,4.118a1.843,1.843,0,0,1-.108-1.421,1.789,1.789,0,0,1,.863-1.117,1.856,1.856,0,0,1,2.474.737A1.751,1.751,0,0,1,38,104.261a1.8,1.8,0,0,1-.879,1.126A1.892,1.892,0,0,1,34.649,104.65Zm10.935-1.567a2.553,2.553,0,0,0-1.976-1.233,2.973,2.973,0,0,0-2.359.689A3.465,3.465,0,0,0,40,104.83a3.5,3.5,0,0,0,.583,2.556,2.962,2.962,0,0,0,2.087,1.288,2.551,2.551,0,0,0,2.235-.653l-0.1.762,1.666,0.23,0.889-6.463-1.666-.229Zm-3.6,3.364a1.842,1.842,0,0,1-.322-1.388,1.79,1.79,0,0,1,.683-1.236,1.858,1.858,0,0,1,2.558.352,1.752,1.752,0,0,1,.337,1.377,1.8,1.8,0,0,1-.7,1.247A1.892,1.892,0,0,1,41.989,106.447Zm10.249-1.455-2.595.024L49.62,102.55l-1.682.016L48,109.088l1.682-.015-0.023-2.479,2.595-.023,0.023,2.478,1.682-.015L53.9,102.511l-1.682.016Z" transform="translate(-20.031 -76.5)"/>
</svg>
