<?xml version="1.0" encoding="utf-8"?>
<!-- Generator: Adobe Illustrator 23.0.3, SVG Export Plug-In . SVG Version: 6.00 Build 0)  -->
<svg version="1.1" id="Capa_1" xmlns="http://www.w3.org/2000/svg" xmlns:xlink="http://www.w3.org/1999/xlink" x="0px" y="0px"
	 viewBox="0 0 97.3 97.3" style="enable-background:new 0 0 97.3 97.3;" xml:space="preserve">
<style type="text/css">
	.st0{fill:#99AC0D;}
</style>
<g>
	<g>
		<polygon class="st0" points="32.8,11.1 19.1,11.1 27.1,3.1 23.9,0 10.6,13.3 24,26.6 27.1,23.5 19.1,15.5 32.8,15.5 		"/>
	</g>
</g>
<g>
	<g>
		<polygon class="st0" points="77.1,0 73.9,3.1 81.9,11.1 68.1,11.1 68.1,15.5 81.9,15.5 73.9,23.5 77.1,26.6 90.4,13.3 		"/>
	</g>
</g>
<g>
	<g>
		<path class="st0" d="M84.9,54.6c-0.2-0.2-0.4-0.3-0.6-0.5c-2.9-1.8-6.1-2.7-9.4-2.7c-4.5,0-9,1.7-12.5,5.2l-3.1,3.1v-42
			c0-4.9-4-8.8-8.8-8.8s-8.8,4-8.8,8.8v19.4c-1.6-2-4-3.3-6.8-3.3c-1.9,0-3.7,0.6-5.1,1.7l-19,11c-2.6,1.5-4.4,4.4-4.4,7.6v14.5
			c0,15.8,12.8,28.6,28.6,28.6c7.6,0,14.6-3,19.7-7.9l0,0l0.5-0.5c0,0,0,0,0,0l29.7-29.7C86.2,57.9,86.2,55.9,84.9,54.6z M51.6,86.2
			c-4.5,4.3-10.4,6.7-16.7,6.7c-13.3,0-24.2-10.8-24.2-24.2V54.2c0-1.6,0.8-3,2.2-3.8l19.4-11.3c0.5-0.4,1.4-0.8,2.5-0.8
			c1.8,0,2.9,1,3.4,1.6l3.9,4.8c0.6,0.7,1.6,1,2.5,0.7c0.9-0.3,1.5-1.1,1.5-2.1V17.7c0-2.4,2-4.4,4.4-4.4c2.4,0,4.4,2,4.4,4.4v44.1
			c0,1.9,1.2,3.5,2.8,4.1c0.7,0.3,1.5,0.1,2.1-0.4l5.8-5.8c2.5-2.5,5.8-3.9,9.4-3.9c2,0,3.9,0.4,5.7,1.3L51.6,86.2z"/>
	</g>
</g>
</svg>
