<svg xmlns="http://www.w3.org/2000/svg" width="58.313" height="17.469" viewBox="0 0 58.313 17.469">
  <metadata><?xpacket begin="﻿" id="W5M0MpCehiHzreSzNTczkc9d"?>
<x:xmpmeta xmlns:x="adobe:ns:meta/" x:xmptk="Adobe XMP Core 5.6-c142 79.160924, 2017/07/13-01:06:39        ">
   <rdf:RDF xmlns:rdf="http://www.w3.org/1999/02/22-rdf-syntax-ns#">
      <rdf:Description rdf:about=""/>
   </rdf:RDF>
</x:xmpmeta>
                                                                                                    
                                                                                                    
                                                                                                    
                                                                                                    
                                                                                                    
                                                                                                    
                                                                                                    
                                                                                                    
                                                                                                    
                                                                                                    
                                                                                                    
                                                                                                    
                                                                                                    
                                                                                                    
                                                                                                    
                                                                                                    
                                                                                                    
                                                                                                    
                                                                                                    
                                                                                                    
                           
<?xpacket end="w"?></metadata>
<defs>
    <style>
      .cls-1 {
        fill: #99ac0d;
        fill-rule: evenodd;
      }
    </style>
  </defs>
  <path id="на_завтрак" data-name="на завтрак" class="cls-1" d="M170.628,342.151l-1.883-1.58,1.511-1.784-1.22-1.024-4,4.718,1.22,1.025,1.519-1.793,1.882,1.58-1.518,1.793,1.22,1.024,4-4.718-1.221-1.025Zm6.714,2.429a2.411,2.411,0,0,0-1.3-1.78,2.836,2.836,0,0,0-2.321-.23,3.5,3.5,0,0,0-2.317,4.012,2.8,2.8,0,0,0,1.376,1.867,2.433,2.433,0,0,0,2.2.218l-0.365.631,1.384,0.79,3.089-5.348-1.384-.791Zm-4.364,1.676a1.737,1.737,0,0,1,.212-1.33,1.7,1.7,0,0,1,1.042-.842,1.762,1.762,0,0,1,2.125,1.214,1.651,1.651,0,0,1-.195,1.326,1.715,1.715,0,0,1-1.059.846,1.669,1.669,0,0,1-1.3-.19A1.652,1.652,0,0,1,172.978,346.256Zm11.646,3.493a1.524,1.524,0,0,0,1.039-1.11,1.637,1.637,0,0,0-.237-1.419,2.8,2.8,0,0,0-4.178-.309l1.023,1.071a1.2,1.2,0,0,1,1.326-.423,0.654,0.654,0,0,1,.567.783,0.577,0.577,0,0,1-.85.343l-0.641-.187-0.386,1.3,0.843,0.246a0.582,0.582,0,0,1,.538.749,0.754,0.754,0,0,1-1.073.355,1.21,1.21,0,0,1-.983-1.162l-1.465.369a2.55,2.55,0,0,0,2.036,2.138c1.52,0.444,2.626-.068,2.925-1.073A1.518,1.518,0,0,0,184.624,349.749Zm6.342-1.262a2.418,2.418,0,0,0-1.883-1.15,2.834,2.834,0,0,0-2.235.67,3.482,3.482,0,0,0-.6,4.586,2.8,2.8,0,0,0,1.989,1.2,2.434,2.434,0,0,0,2.118-.635l-0.095.721,1.584,0.2,0.805-6.113-1.584-.2Zm-3.393,3.207a1.73,1.73,0,0,1-.314-1.309,1.693,1.693,0,0,1,.641-1.173,1.717,1.717,0,0,1,2.759,1.61,1.7,1.7,0,0,1-.655,1.184A1.8,1.8,0,0,1,187.573,351.694Zm10.076-.952a1.5,1.5,0,0,0,.556-1.294,1.775,1.775,0,0,0-2.123-1.651l-3.006.125,0.246,6.16,3.253-.136a1.79,1.79,0,0,0,2-1.836A1.443,1.443,0,0,0,197.649,350.742Zm-1.663-1.633a0.566,0.566,0,1,1,.044,1.108l-1.361.057-0.044-1.108Zm-1.221,3.567-0.046-1.145,1.571-.066a0.583,0.583,0,0,1,.715.526,0.575,0.575,0,0,1-.669.62Zm2.993-4.919,0.278,1.5,1.924-.356,0.843,4.557,1.571-.291-0.843-4.558,1.9-.352-0.277-1.5Zm8.6-2.315a2.387,2.387,0,0,0-1.584,1.525l-0.246-.685-1.5.54,2.925,8.12,1.5-.54-1.082-3a2.393,2.393,0,0,0,2.193.168,2.793,2.793,0,0,0,1.687-1.6,3.441,3.441,0,0,0-1.567-4.35A2.81,2.81,0,0,0,206.358,345.442Zm0.095,4.76a1.738,1.738,0,0,1-.881-1.02,1.689,1.689,0,0,1,.033-1.335,1.772,1.772,0,0,1,2.308-.829,1.652,1.652,0,0,1,.888,1.005,1.69,1.69,0,0,1-.04,1.35A1.8,1.8,0,0,1,206.453,350.2Zm7.222-7.4a2.433,2.433,0,0,0-2.2.243,2.821,2.821,0,0,0-1.357,1.893,3.261,3.261,0,0,0,.411,2.431,3.308,3.308,0,0,0,1.934,1.554,2.826,2.826,0,0,0,2.313-.267,2.424,2.424,0,0,0,1.285-1.8l0.369,0.627,1.378-.806-3.126-5.313-1.378.806Zm-0.711,4.6a1.747,1.747,0,0,1-1.055-.84,1.687,1.687,0,0,1-.215-1.317,1.77,1.77,0,0,1,2.116-1.238,1.658,1.658,0,0,1,1.059.824,1.692,1.692,0,0,1,.21,1.334A1.8,1.8,0,0,1,212.964,347.407Zm6.388-6.012-0.067-3.927-1.459,1.227,0.127,3.441-1.756-2.071-1.221,1.028,3.988,4.707,1.222-1.027-1.811-2.138,3.535,0.688,1.421-1.195Z" transform="translate(-165.031 -337.469)"/>
</svg>
