<svg xmlns="http://www.w3.org/2000/svg" width="65.094" height="18.875" viewBox="0 0 65.094 18.875">
  <metadata><?xpacket begin="﻿" id="W5M0MpCehiHzreSzNTczkc9d"?>
<x:xmpmeta xmlns:x="adobe:ns:meta/" x:xmptk="Adobe XMP Core 5.6-c142 79.160924, 2017/07/13-01:06:39        ">
   <rdf:RDF xmlns:rdf="http://www.w3.org/1999/02/22-rdf-syntax-ns#">
      <rdf:Description rdf:about=""/>
   </rdf:RDF>
</x:xmpmeta>
                                                                                                    
                                                                                                    
                                                                                                    
                                                                                                    
                                                                                                    
                                                                                                    
                                                                                                    
                                                                                                    
                                                                                                    
                                                                                                    
                                                                                                    
                                                                                                    
                                                                                                    
                                                                                                    
                                                                                                    
                                                                                                    
                                                                                                    
                                                                                                    
                                                                                                    
                                                                                                    
                           
<?xpacket end="w"?></metadata>
<defs>
    <style>
      .cls-1 {
        fill: #99ac0d;
        fill-rule: evenodd;
      }
    </style>
  </defs>
  <path id="для_выпечки" data-name="для выпечки" class="cls-1" d="M26.588,339.244l-3.351-3.5-1.807,1.716a3.877,3.877,0,0,1-1.951,1.12l-0.521-.544L16.675,340.2l1.077,1.124,1.2-1.138,2.65,2.766-1.2,1.138,1.077,1.125,2.282-2.166-0.564-.589Zm-5.93.569a5.35,5.35,0,0,0,1.849-1.227l0.77-.73,1.2,1.249-2.353,2.234ZM27.49,340L25.4,342.8c-0.568.761-1.085,0.854-1.516,0.335l-0.893,1.2c1.291,1.186,2.5,1.02,3.639-.512l1.232-1.65,1.372,1.016L26.456,346.9l1.282,0.95,3.689-4.942Zm6.188,4.109a2.173,2.173,0,0,0-1.73-.188,2.068,2.068,0,0,0-1.239,1.038,2.109,2.109,0,0,0,.26,2.313l-2.347,1.158,1.637,0.848,2.152-1.051,0.495,0.256-0.888,1.705L33.4,350.9l2.847-5.465Zm0.532,1.871-0.683,1.312-1.077-.558a0.733,0.733,0,0,1-.378-1.015,0.749,0.749,0,0,1,1.062-.3Zm8.581,4.608a1.491,1.491,0,0,0,.9-1.077,1.777,1.777,0,0,0-1.555-2.194l-2.913-.75-1.539,5.963,3.152,0.812a1.786,1.786,0,0,0,2.439-1.178A1.446,1.446,0,0,0,42.792,350.584Zm-1.121-2.044a0.566,0.566,0,1,1-.277,1.073l-1.318-.339,0.277-1.074Zm-2.2,3.06,0.286-1.11,1.522,0.392a0.584,0.584,0,0,1,.533.71,0.574,0.574,0,0,1-.819.4Zm6.241-1.579,0.138-1.968-1.594-.113-0.431,6.149,2.792,0.2a2.109,2.109,0,1,0,.293-4.182Zm3.92,4.482,1.594,0.113,0.431-6.149-1.594-.114Zm-4.115-1.7,0.1-1.389,1.211,0.086a0.714,0.714,0,0,1,.717.755,0.7,0.7,0,0,1-.814.635Zm6.428-4.417,0.763,6.115,1.584-.193-0.579-4.636,2.444-.3,0.579,4.636,1.584-.193L57.562,347.7Zm12.847,1.07a4.157,4.157,0,0,0-.132-0.643,3.252,3.252,0,0,0-1.532-1.961,2.927,2.927,0,0,0-2.419-.249,3.114,3.114,0,0,0-1.976,1.576,3.4,3.4,0,0,0,1.374,4.445,3.34,3.34,0,0,0,2.629.173,3.062,3.062,0,0,0,2.2-2.042l-1.449-.336a1.64,1.64,0,0,1-1.146.991,1.585,1.585,0,0,1-2.01-.6Zm-4.851.176a1.535,1.535,0,0,1,1.187-1.661,1.5,1.5,0,0,1,1.834.749Zm8.373-3.035a2.88,2.88,0,0,1-.97.741,0.935,0.935,0,0,1-1.444-.318L65,345.206l-1.429.707,0.989,1.976a2.174,2.174,0,0,0,3.21.891,4.755,4.755,0,0,0,1.219-.85l0.878,1.755,1.429-.707-2.762-5.519-1.429.706Zm4.949-2.719,0.247-3.918-1.552,1.1L71.812,344.5l-1.584-2.21-1.3.922,3.6,5.022,1.3-.922-1.634-2.28,3.468,0.979,1.511-1.072ZM77,341.41l-2.48-2.488-1.107,1.094,4.367,4.38,0.843-.833-0.416-4.528,2.48,2.488,1.107-1.093-4.367-4.38-0.843.833Z" transform="translate(-16.688 -335.75)"/>
</svg>
