<svg xmlns="http://www.w3.org/2000/svg" width="35.687" height="11.593" viewBox="0 0 35.687 11.593">
  <metadata><?xpacket begin="﻿" id="W5M0MpCehiHzreSzNTczkc9d"?>
<x:xmpmeta xmlns:x="adobe:ns:meta/" x:xmptk="Adobe XMP Core 5.6-c142 79.160924, 2017/07/13-01:06:39        ">
   <rdf:RDF xmlns:rdf="http://www.w3.org/1999/02/22-rdf-syntax-ns#">
      <rdf:Description rdf:about=""/>
   </rdf:RDF>
</x:xmpmeta>
                                                                                                    
                                                                                                    
                                                                                                    
                                                                                                    
                                                                                                    
                                                                                                    
                                                                                                    
                                                                                                    
                                                                                                    
                                                                                                    
                                                                                                    
                                                                                                    
                                                                                                    
                                                                                                    
                                                                                                    
                                                                                                    
                                                                                                    
                                                                                                    
                                                                                                    
                                                                                                    
                           
<?xpacket end="w"?></metadata>
<defs>
    <style>
      .cls-1 {
        fill: #99ac0d;
        fill-rule: evenodd;
      }
    </style>
  </defs>
  <path id="к_кофе" data-name="к кофе" class="cls-1" d="M107.949,357.8l3.461-1.881-1.766-.717-3,1.708,1.03-2.509-1.48-.6-2.339,5.7,1.48,0.6,1.061-2.589,1.025,3.437,1.72,0.7Zm8.575,2.25,2.945-2.61-1.883-.3-2.538,2.339,0.434-2.677-1.577-.253-0.986,6.083,1.577,0.254,0.448-2.762,1.778,3.119,1.834,0.3Zm7.666,2.751a3.275,3.275,0,0,0,.016-4.619,3.33,3.33,0,0,0-4.655-.017,3.3,3.3,0,0,0-.016,4.619A3.361,3.361,0,0,0,124.19,362.8Zm-3.524-1.109a1.814,1.814,0,0,1,.008-2.439,1.741,1.741,0,0,1,2.4.009,1.782,1.782,0,0,1-.009,2.439A1.74,1.74,0,0,1,120.666,361.691Zm9.839,1.1a3.661,3.661,0,0,0,2-1.468,3.129,3.129,0,0,0-.787-4.144,3.685,3.685,0,0,0-2.405-.639l-0.442-2.326-1.534.288,0.442,2.326a3.656,3.656,0,0,0-2,1.468,3.128,3.128,0,0,0,.788,4.144,3.68,3.68,0,0,0,2.4.639l0.442,2.326,1.534-.288Zm-3.59-2.563a1.674,1.674,0,0,1,1.15-1.91l0.623,3.271A1.692,1.692,0,0,1,126.915,360.23Zm2.685-2.2a1.67,1.67,0,0,1,.619,3.259Zm9.689-.768a4.216,4.216,0,0,0-.183-0.63,3.246,3.246,0,0,0-1.684-1.828,2.931,2.931,0,0,0-2.43-.053,3.119,3.119,0,0,0-1.842,1.73,3.39,3.39,0,0,0,1.726,4.314,3.338,3.338,0,0,0,2.632-.04,3.064,3.064,0,0,0,2.024-2.211l-1.471-.218a1.638,1.638,0,0,1-1.062,1.08,1.583,1.583,0,0,1-2.051-.44Zm-4.818.567a1.533,1.533,0,0,1,1.049-1.749,1.5,1.5,0,0,1,1.887.6Z" transform="translate(-103.844 -353.813)"/>
</svg>
