<svg id="Попить_кофе" data-name="Попить кофе" xmlns="http://www.w3.org/2000/svg" width="39.563" height="28" viewBox="0 0 39.563 28">
  <metadata><?xpacket begin="﻿" id="W5M0MpCehiHzreSzNTczkc9d"?>
<x:xmpmeta xmlns:x="adobe:ns:meta/" x:xmptk="Adobe XMP Core 5.6-c142 79.160924, 2017/07/13-01:06:39        ">
   <rdf:RDF xmlns:rdf="http://www.w3.org/1999/02/22-rdf-syntax-ns#">
      <rdf:Description rdf:about=""/>
   </rdf:RDF>
</x:xmpmeta>
                                                                                                    
                                                                                                    
                                                                                                    
                                                                                                    
                                                                                                    
                                                                                                    
                                                                                                    
                                                                                                    
                                                                                                    
                                                                                                    
                                                                                                    
                                                                                                    
                                                                                                    
                                                                                                    
                                                                                                    
                                                                                                    
                                                                                                    
                                                                                                    
                                                                                                    
                                                                                                    
                           
<?xpacket end="w"?></metadata>
<defs>
    <style>
      .cls-1 {
        fill: #99ac0d;
        fill-rule: evenodd;
      }
    </style>
  </defs>
  <path id="попить" class="cls-1" d="M102.022,64.853l-2.279,6.134,1.582,0.588,1.728-4.65,2.442,0.907-1.728,4.65,1.583,0.588,2.279-6.134Zm10.453,8.877a3.473,3.473,0,0,0-3.887-5.755A3.473,3.473,0,0,0,112.475,73.729Zm-3.435-1.856a1.934,1.934,0,0,1,.5-2.542,1.832,1.832,0,0,1,2.49.486,1.9,1.9,0,0,1-.5,2.541A1.832,1.832,0,0,1,109.04,71.873Zm5.536-3.657L114.5,74.76l1.689,0.018,0.054-4.961,2.605,0.029-0.054,4.96,1.688,0.018,0.072-6.544Zm8.629,3.434-0.6-3.669-1.627.266,1.055,6.459,1.24-.2,2.436-4.164,0.6,3.669,1.628-.266-1.055-6.459-1.24.2Zm3.606-4.351,0.507,1.541,1.963-.645,1.535,4.672,1.6-.527-1.535-4.672,1.938-.637-0.506-1.541Zm7.909-.7-0.929-1.876-1.513.749,2.9,5.862,2.65-1.312a2.237,2.237,0,1,0-1.975-3.986Zm1.312,2.65-0.656-1.325,1.149-.569a0.755,0.755,0,0,1,1.058.308,0.744,0.744,0,0,1-.4,1.016Z" transform="translate(-99.75 -64.719)"/>
  <path id="кофе" class="cls-1" d="M108.964,85.855l3.21-2.66L110.2,82.8l-2.769,2.388,0.56-2.825-1.657-.328-1.272,6.421,1.657,0.328,0.577-2.915,1.76,3.378,1.927,0.382Zm8.019,3.528a3.477,3.477,0,0,0-4.491-5.309A3.477,3.477,0,0,0,116.983,89.383Zm-3.62-1.477a1.938,1.938,0,0,1,.219-2.583,1.835,1.835,0,0,1,2.531.215,1.9,1.9,0,0,1-.219,2.583A1.835,1.835,0,0,1,113.363,87.907Zm10.264,2.186a3.866,3.866,0,0,0,2.281-1.3,3.328,3.328,0,0,0-.313-4.46,3.866,3.866,0,0,0-2.441-.969l-0.175-2.5-1.644.115,0.176,2.5a3.866,3.866,0,0,0-2.281,1.3,3.328,3.328,0,0,0,.313,4.46,3.865,3.865,0,0,0,2.44.969l0.176,2.5L123.8,92.6Zm-3.445-3.14a1.776,1.776,0,0,1,1.442-1.871l0.247,3.521A1.785,1.785,0,0,1,120.182,86.953Zm3.085-1.986a1.772,1.772,0,0,1,.246,3.508Zm10.419,0.6a4.6,4.6,0,0,0-.091-0.691,3.443,3.443,0,0,0-1.467-2.189,3.087,3.087,0,0,0-2.532-.442,3.306,3.306,0,0,0-2.2,1.524,3.61,3.61,0,0,0,1.112,4.808,3.514,3.514,0,0,0,2.758.377,3.254,3.254,0,0,0,2.471-2l-1.5-.462a1.738,1.738,0,0,1-1.283.964,1.668,1.668,0,0,1-2.074-.789Zm-5.129-.171a1.632,1.632,0,0,1,1.377-1.671,1.583,1.583,0,0,1,1.878.927Z" transform="translate(-99.75 -64.719)"/>
</svg>
