<svg id="Приготовить_выпечку" data-name="Приготовить выпечку" xmlns="http://www.w3.org/2000/svg" width="63.5" height="43.313" viewBox="0 0 63.5 43.313">
  <metadata><?xpacket begin="﻿" id="W5M0MpCehiHzreSzNTczkc9d"?>
<x:xmpmeta xmlns:x="adobe:ns:meta/" x:xmptk="Adobe XMP Core 5.6-c142 79.160924, 2017/07/13-01:06:39        ">
   <rdf:RDF xmlns:rdf="http://www.w3.org/1999/02/22-rdf-syntax-ns#">
      <rdf:Description rdf:about=""/>
   </rdf:RDF>
</x:xmpmeta>
                                                                                                    
                                                                                                    
                                                                                                    
                                                                                                    
                                                                                                    
                                                                                                    
                                                                                                    
                                                                                                    
                                                                                                    
                                                                                                    
                                                                                                    
                                                                                                    
                                                                                                    
                                                                                                    
                                                                                                    
                                                                                                    
                                                                                                    
                                                                                                    
                                                                                                    
                                                                                                    
                           
<?xpacket end="w"?></metadata>
<defs>
    <style>
      .cls-1 {
        fill: #99ac0d;
        fill-rule: evenodd;
      }
    </style>
  </defs>
  <path id="приготовить" class="cls-1" d="M13.453,111.75L10.521,117.6l1.509,0.756,2.222-4.433,2.328,1.167-2.222,4.433,1.509,0.756,2.931-5.848Zm9.406,3.748a2.52,2.52,0,0,0-2.3.32l0.217-.741-1.62-.475-2.578,8.788,1.62,0.475,0.954-3.252a2.519,2.519,0,0,0,1.765,1.513,2.951,2.951,0,0,0,2.439-.32,3.665,3.665,0,0,0,1.381-4.708A2.966,2.966,0,0,0,22.859,115.5Zm-2.892,4.142a1.846,1.846,0,0,1-.114-1.424,1.8,1.8,0,0,1,.862-1.125,1.866,1.866,0,0,1,2.486.729,1.756,1.756,0,0,1,.13,1.416,1.807,1.807,0,0,1-.878,1.133A1.9,1.9,0,0,1,19.967,119.64Zm7.2,0.744,0.39-3.7-1.64-.173-0.687,6.508,1.25,0.132,3.449-3.373-0.39,3.7,1.64,0.174,0.687-6.509-1.25-.132Zm5.282-3.3,0.264,6.535,1.686-.069-0.2-4.913,2.784-.113-0.066-1.62ZM43.158,121.6a3.477,3.477,0,0,0-5.732-3.936,3.527,3.527,0,0,0,.891,4.829A3.543,3.543,0,0,0,43.158,121.6Zm-3.881-.469a1.938,1.938,0,0,1-.47-2.55,1.837,1.837,0,0,1,2.5-.461,1.9,1.9,0,0,1,.47,2.55A1.837,1.837,0,0,1,39.277,121.129Zm3.15-5.209,0.532,1.532,1.953-.677,1.613,4.647,1.595-.553-1.613-4.648,1.928-.669L47.9,114.019ZM55.2,116.637A3.475,3.475,0,0,0,48.56,114.6,3.475,3.475,0,0,0,55.2,116.637Zm-3.842.712a1.936,1.936,0,0,1-1.21-2.291,1.835,1.835,0,0,1,2.245-1.186,1.9,1.9,0,0,1,1.21,2.291A1.835,1.835,0,0,1,51.362,117.349Zm7.8-6.7a1.59,1.59,0,0,0-.307-1.462,1.885,1.885,0,0,0-2.848-.151l-2.531,1.928,3.967,5.208,2.739-2.087a1.892,1.892,0,0,0,.613-2.8A1.539,1.539,0,0,0,59.165,110.652Zm-2.439-.414a0.6,0.6,0,1,1,.714.938l-1.146.872-0.714-.937Zm1.116,3.841-0.738-.968,1.323-1.008a0.618,0.618,0,0,1,.94.025,0.608,0.608,0,0,1-.2.944ZM61.8,108.9l-2.7-2.556-1.134,1.2,4.749,4.5,0.864-.912L63,106.345l2.7,2.556,1.134-1.2-4.749-4.5-0.864.912Zm0.224-5.639,1.335,0.924,1.177-1.7,4.048,2.8,0.961-1.389L65.5,101.1l1.162-1.68L65.325,98.5Zm5.9-5.345-1.874-.935L65.294,98.5l5.856,2.922,1.321-2.646a2.238,2.238,0,1,0-3.982-1.987Zm2.647,1.321-1.324-.66,0.573-1.148a0.755,0.755,0,0,1,1.03-.393,0.745,0.745,0,0,1,.293,1.053Z" transform="translate(-10.531 -95.313)"/>
  <path id="выпечку" class="cls-1" d="M34.007,135.185a1.585,1.585,0,0,0,.727-1.3,1.883,1.883,0,0,0-2.047-1.981l-3.171-.206-0.424,6.525,3.432,0.223a1.89,1.89,0,0,0,2.3-1.712A1.536,1.536,0,0,0,34.007,135.185Zm-1.566-1.91a0.6,0.6,0,1,1-.076,1.175l-1.436-.094,0.076-1.174ZM30.764,136.9l0.079-1.214,1.657,0.108a0.618,0.618,0,0,1,.693.635,0.608,0.608,0,0,1-.771.579Zm6.319-2.844-0.177-2.086-1.682.143,0.553,6.519,2.947-.25a2.237,2.237,0,1,0-.376-4.433Zm4.822,4.056,1.682-.142-0.553-6.519-1.682.142ZM37.333,137l-0.125-1.473,1.278-.109a0.755,0.755,0,0,1,.871.675,0.745,0.745,0,0,1-.746.8Zm6.243-5.7,1.539,6.357,1.64-.4-1.167-4.819,2.531-.612,1.167,4.819,1.64-.4-1.539-6.358Zm13.8-.268a4.419,4.419,0,0,0-.2-0.669,3.441,3.441,0,0,0-1.784-1.937,3.085,3.085,0,0,0-2.568-.048,3.3,3.3,0,0,0-1.942,1.842,3.606,3.606,0,0,0,1.835,4.577,3.513,3.513,0,0,0,2.782-.05,3.249,3.249,0,0,0,2.132-2.355l-1.554-.226a1.737,1.737,0,0,1-1.12,1.149,1.667,1.667,0,0,1-2.168-.461Zm-5.09.616a1.63,1.63,0,0,1,1.1-1.86,1.58,1.58,0,0,1,2,.628Zm8.724-3.891a3.051,3.051,0,0,1-.982.841,0.986,0.986,0,0,1-1.542-.255l-1.056-1.867-1.469.831,1.153,2.038c0.754,1.332,2.059,1.541,3.437.761a5.023,5.023,0,0,0,1.239-.971l1.024,1.81,1.469-.83-3.22-5.694-1.469.831Zm5.19-3.118,0.161-4.163-1.611,1.211-0.07,3.653-1.729-2.3L61.6,124.054l3.93,5.229,1.349-1.014L65.094,125.9l3.688,0.943,1.569-1.179Zm5.248-3.016-4.315-1.936-1.287,1.246,6.391,2.8a1.525,1.525,0,0,1-.42,1.972l1.092,1.126c1.238-1.071,1.463-2.491.66-4.279l-2.84-6.351-1.3,1.255Z" transform="translate(-10.531 -95.313)"/>
</svg>
