<svg id="Сделать_бутерброд" data-name="Сделать бутерброд" xmlns="http://www.w3.org/2000/svg" width="56.125" height="38.625" viewBox="0 0 56.125 38.625">
  <metadata><?xpacket begin="﻿" id="W5M0MpCehiHzreSzNTczkc9d"?>
<x:xmpmeta xmlns:x="adobe:ns:meta/" x:xmptk="Adobe XMP Core 5.6-c142 79.160924, 2017/07/13-01:06:39        ">
   <rdf:RDF xmlns:rdf="http://www.w3.org/1999/02/22-rdf-syntax-ns#">
      <rdf:Description rdf:about=""/>
   </rdf:RDF>
</x:xmpmeta>
                                                                                                    
                                                                                                    
                                                                                                    
                                                                                                    
                                                                                                    
                                                                                                    
                                                                                                    
                                                                                                    
                                                                                                    
                                                                                                    
                                                                                                    
                                                                                                    
                                                                                                    
                                                                                                    
                                                                                                    
                                                                                                    
                                                                                                    
                                                                                                    
                                                                                                    
                                                                                                    
                           
<?xpacket end="w"?></metadata>
<defs>
    <style>
      .cls-1 {
        fill: #99ac0d;
        fill-rule: evenodd;
      }
    </style>
  </defs>
  <path id="сделать" class="cls-1" d="M170.447,120.306a3.357,3.357,0,0,0,3.181,1.232l-0.27-1.666a1.615,1.615,0,0,1-1.617-.628,1.709,1.709,0,0,1-.4-1.29,1.788,1.788,0,0,1,.685-1.192,1.716,1.716,0,0,1,2.5.238,1.617,1.617,0,0,1,.255,1.711l1.574,0.595a3.258,3.258,0,0,0-.528-3.34A3.454,3.454,0,1,0,170.447,120.306Zm11.381,1.805-3.848-3.393-1.749,1.983a4.1,4.1,0,0,1-1.954,1.365l-0.6-.528-2.207,2.5,1.237,1.091,1.159-1.315,3.044,2.682-1.16,1.316,1.237,1.09,2.207-2.5-0.648-.571Zm-6.2,1.15a5.7,5.7,0,0,0,1.836-1.47l0.745-.844,1.374,1.212-2.276,2.581Zm9.983,5.958a4.454,4.454,0,0,0,.42-0.555,3.437,3.437,0,0,0,.5-2.586,3.082,3.082,0,0,0-1.488-2.092,3.3,3.3,0,0,0-2.635-.465,3.606,3.606,0,0,0-2.588,4.2,3.51,3.51,0,0,0,1.695,2.2,3.248,3.248,0,0,0,3.16.314l-0.742-1.384a1.739,1.739,0,0,1-1.589-.216,1.667,1.667,0,0,1-.92-2.017Zm-3.523-3.724a1.631,1.631,0,0,1,2.152-.22,1.582,1.582,0,0,1,.682,1.978Zm5.979,0.458-1.425,3.432c-0.386.931-.892,1.16-1.467,0.737l-0.607,1.462c1.629,0.889,2.821.406,3.6-1.467l0.838-2.018,1.668,0.692-1.886,4.544,1.559,0.648,2.508-6.043Zm9.831,3.98a2.564,2.564,0,0,0-1.874-1.394,2.986,2.986,0,0,0-2.415.5,3.7,3.7,0,0,0-1.062,4.788,2.97,2.97,0,0,0,1.982,1.457,2.56,2.56,0,0,0,2.288-.47l-0.167.753,1.647,0.365,1.416-6.384-1.648-.365ZM194.034,133a1.843,1.843,0,0,1-.21-1.412,1.8,1.8,0,0,1,.784-1.18,1.865,1.865,0,0,1,2.529.561,1.754,1.754,0,0,1,.225,1.4,1.808,1.808,0,0,1-.8,1.189A1.9,1.9,0,0,1,194.034,133Zm5.531-3.516-0.091,1.62,2.064,0.116-0.275,4.912,1.685,0.094,0.276-4.912,2.038,0.114,0.09-1.62Zm7.637,2.232-0.18-2.087-1.683.146,0.564,6.52,2.948-.255a2.238,2.238,0,1,0-.384-4.434Zm0.255,2.947-0.127-1.474,1.278-.11a0.754,0.754,0,0,1,.872.673,0.743,0.743,0,0,1-.745.8Z" transform="translate(-158.344 -114.656)"/>
  <path id="бутерброд" class="cls-1" d="M159.031,129a3.305,3.305,0,0,0,2.084,1.44,2.879,2.879,0,0,0,2.333-.535,2.815,2.815,0,0,0,.741-3.946,2.61,2.61,0,0,0-1.745-1.167,2.51,2.51,0,0,1,2.2.605,7.658,7.658,0,0,0,1.757.934,2,2,0,0,0,1.46-.091l-0.153-1.592a1.814,1.814,0,0,1-1.32-.073c-0.184-.078-0.332-0.15-0.435-0.2l-0.542-.288c-0.256-.156-0.462-0.266-0.6-0.345a4.325,4.325,0,0,0-2.514-.669,5.484,5.484,0,0,0-2.389,1.089,3.529,3.529,0,0,0-1.512,2.231A3.291,3.291,0,0,0,159.031,129Zm3.749-2.7a1.537,1.537,0,0,1-.311,2.227,1.461,1.461,0,0,1-1.161.264,1.623,1.623,0,0,1-1.026-.7,1.686,1.686,0,0,1-.328-1.228,1.509,1.509,0,0,1,.655-1.043,1.342,1.342,0,0,1,1.173-.225A1.77,1.77,0,0,1,162.78,126.306Zm2.3,6.433,2.04-4.269-1.216-1.317-2.955,6.325a1.524,1.524,0,0,1-1.962-.467l-1.153,1.065c1.042,1.263,2.457,1.523,4.265.762l6.42-2.688-1.225-1.326Zm5.11-.951-1.05,1.237,1.577,1.338-3.185,3.752,1.287,1.092L172,135.456l1.556,1.321,1.051-1.237Zm7.423,10.484a4.521,4.521,0,0,0,.437-0.543,3.442,3.442,0,0,0,.569-2.571,3.081,3.081,0,0,0-1.428-2.135,3.3,3.3,0,0,0-2.622-.541,3.61,3.61,0,0,0-2.708,4.123,3.518,3.518,0,0,0,1.632,2.254,3.252,3.252,0,0,0,3.151.4l-0.7-1.405a1.738,1.738,0,0,1-1.583-.262,1.666,1.666,0,0,1-.862-2.043Zm-3.417-3.825a1.633,1.633,0,0,1,2.159-.158,1.581,1.581,0,0,1,.625,2Zm9.366,2.111a2.518,2.518,0,0,0-2.323-.036l0.328-.7-1.527-.717-3.893,8.285,1.527,0.717,1.44-3.065a2.522,2.522,0,0,0,1.512,1.765,2.951,2.951,0,0,0,2.459.056,3.663,3.663,0,0,0,2.085-4.438A2.966,2.966,0,0,0,183.562,140.558Zm-3.491,3.648a1.844,1.844,0,0,1,.106-1.424,1.794,1.794,0,0,1,1.023-.978,1.863,1.863,0,0,1,2.343,1.1,1.752,1.752,0,0,1-.088,1.417,1.8,1.8,0,0,1-1.04.985A1.9,1.9,0,0,1,180.071,144.206Zm7.593,5.251a3.309,3.309,0,0,0,2.528-.137,2.882,2.882,0,0,0,1.516-1.85,2.813,2.813,0,0,0-1.829-3.573,2.607,2.607,0,0,0-2.093.145,2.512,2.512,0,0,1,2.106-.866,7.606,7.606,0,0,0,1.96-.336,2,2,0,0,0,1.1-.965l-1.1-1.165a1.811,1.811,0,0,1-1.088.75c-0.193.051-.353,0.084-0.469,0.1l-0.6.1c-0.3.033-.528,0.073-0.684,0.093a4.32,4.32,0,0,0-2.4,1.011,5.481,5.481,0,0,0-1.222,2.321,3.527,3.527,0,0,0,.17,2.689A3.292,3.292,0,0,0,187.664,149.457Zm1.312-4.426a1.537,1.537,0,0,1,1.118,1.95,1.458,1.458,0,0,1-.757.919,1.624,1.624,0,0,1-1.239.076,1.688,1.688,0,0,1-1.01-.77,1.51,1.51,0,0,1-.121-1.226,1.339,1.339,0,0,1,.79-0.895A1.771,1.771,0,0,1,188.976,145.031Zm7.681-.666a2.521,2.521,0,0,0-2.236.632l0.114-.763-1.669-.248-1.348,9.055,1.669,0.248,0.5-3.35a2.518,2.518,0,0,0,1.955,1.256,2.95,2.95,0,0,0,2.371-.652,3.662,3.662,0,0,0,.722-4.851A2.964,2.964,0,0,0,196.657,144.365Zm-2.3,4.5a1.849,1.849,0,0,1-.308-1.4,1.8,1.8,0,0,1,.7-1.231,1.864,1.864,0,0,1,2.562.381,1.753,1.753,0,0,1,.323,1.383,1.8,1.8,0,0,1-.714,1.243A1.9,1.9,0,0,1,194.361,148.863Zm11.218,1.866a3.363,3.363,0,0,0,1.011-2.459,3.442,3.442,0,0,0-3.463-3.459,3.363,3.363,0,0,0-2.462,1,3.449,3.449,0,0,0,2.452,5.905A3.35,3.35,0,0,0,205.579,150.729Zm-3.728-1.17a1.937,1.937,0,0,1,0-2.591,1.834,1.834,0,0,1,2.538,0,1.9,1.9,0,0,1,0,2.59A1.834,1.834,0,0,1,201.851,149.559Zm10.622-5.405-5.084.707,0.364,2.62a4.1,4.1,0,0,1-.238,2.373l-0.791.11,0.459,3.307,1.635-.227-0.242-1.738,4.021-.559,0.242,1.738,1.634-.227-0.46-3.308-0.856.119Zm-3.168,5.451a5.713,5.713,0,0,0,.083-2.352l-0.155-1.115,1.815-.252,0.475,3.411Z" transform="translate(-158.344 -114.656)"/>
</svg>
