<?xml version="1.0" encoding="utf-8"?>
<!-- Generator: Adobe Illustrator 23.0.3, SVG Export Plug-In . SVG Version: 6.00 Build 0)  -->
<svg version="1.1" id="Capa_1" xmlns="http://www.w3.org/2000/svg" xmlns:xlink="http://www.w3.org/1999/xlink" x="0px" y="0px"
	 viewBox="0 0 97.3 97.3" style="enable-background:new 0 0 97.3 97.3;" xml:space="preserve">
<style type="text/css">
	.st0{fill:#99AC0D;}
</style>
<g>
	<path id="Shape" class="st0" d="M80.1,0H18.4c-4.5,0-8.1,3.6-8.1,8.1v3.2c0,4,2.1,7.7,5.5,9.7c-3.4,2.1-5.5,5.8-5.5,9.7v50.3
		c0,4.5,3.6,8.1,8.1,8.1h5.2c0.4,1.2,1.3,2.2,2.5,2.8c1.2,0.6,2.5,0.6,3.7,0.2c0,1.7,0.8,3.4,2.3,4.3c1.5,0.9,3.3,1,4.9,0.1
		c1.5-0.8,2.5-2.4,2.6-4.1v-3.2h13v3.2c0,1.7,1,3.3,2.6,4.1c1.5,0.8,3.4,0.8,4.9-0.1c1.5-0.9,2.4-2.5,2.3-4.3c1.1,0.4,2.2,0.4,3.2,0
		c0,1.7,0.8,3.4,2.3,4.3c1.5,0.9,3.3,1,4.9,0.1c1.5-0.8,2.5-2.4,2.6-4.1v-3.2h4.9c4.5,0,8.1-3.6,8.1-8.1V30.9c0-4-2.1-7.7-5.5-9.7
		c3.4-2.1,5.5-5.8,5.5-9.7V8.1C88.2,3.6,84.5,0,80.1,0z M18.4,79.6c-1.3,0-2.5-0.5-3.5-1.4c-0.9-0.9-1.4-2.2-1.4-3.5
		c1.4,1.1,3.1,1.7,4.9,1.7h61.7c1.8,0,3.5-0.6,4.9-1.7c0,1.3-0.5,2.5-1.4,3.5c-0.9,0.9-2.2,1.4-3.5,1.4H18.4z M13.5,81.2
		c1.4,1.1,3.1,1.7,4.9,1.7h4.9v3.2h-4.9c-1.3,0-2.5-0.5-3.5-1.4S13.5,82.5,13.5,81.2z M36.2,92.6c0,0.9-0.7,1.6-1.6,1.6
		S33,93.5,33,92.6v-4.9c0-0.9-0.7-1.6-1.6-1.6c-0.9,0-1.6,0.7-1.6,1.6s-0.7,1.6-1.6,1.6s-1.6-0.7-1.6-1.6v-4.9h9.7V92.6z M39.5,86.1
		v-3.2h13v3.2H39.5z M71.9,92.6c0,0.9-0.7,1.6-1.6,1.6s-1.6-0.7-1.6-1.6v-4.9c0-0.9-0.7-1.6-1.6-1.6s-1.6,0.7-1.6,1.6
		s-0.7,1.6-1.6,1.6c-0.9,0-1.6-0.7-1.6-1.6s-0.7-1.6-1.6-1.6c-0.9,0-1.6,0.7-1.6,1.6v4.9c0,0.9-0.7,1.6-1.6,1.6s-1.6-0.7-1.6-1.6
		v-9.7h16.2V92.6z M80.1,86.1h-4.9v-3.2h4.9c1.8,0,3.5-0.6,4.9-1.7c0,1.3-0.5,2.5-1.4,3.5S81.4,86.1,80.1,86.1z M84.9,11.4
		c0,4.5-3.6,8.1-8.1,8.1c-0.9,0-1.6,0.7-1.6,1.6s0.7,1.6,1.6,1.6c4.5,0,8.1,3.6,8.1,8.1v37.4c0,2.7-2.2,4.9-4.9,4.9H18.4
		c-2.7,0-4.9-2.2-4.9-4.9V30.9c0-4.5,3.6-8.1,8.1-8.1c0.9,0,1.6-0.7,1.6-1.6s-0.7-1.6-1.6-1.6c-4.5,0-8.1-3.6-8.1-8.1V8.1
		c0-2.7,2.2-4.9,4.9-4.9h61.7c2.7,0,4.9,2.2,4.9,4.9V11.4z"/>
	<path class="st0" d="M69.8,28.1c-0.6-0.6-1.7-0.6-2.3,0L31.8,63.8c-0.4,0.4-0.6,1-0.4,1.6s0.6,1,1.2,1.2s1.2,0,1.6-0.4l35.7-35.7
		C70.5,29.7,70.5,28.7,69.8,28.1L69.8,28.1z"/>
	<path class="st0" d="M73.1,10.2c-0.6-0.6-1.7-0.6-2.3,0L20.5,60.6c-0.4,0.4-0.6,1-0.4,1.6c0.1,0.6,0.6,1,1.2,1.2
		c0.6,0.1,1.2,0,1.6-0.4l50.3-50.3C73.7,11.9,73.7,10.9,73.1,10.2z"/>
	<path class="st0" d="M21.6,48.7c0.4,0,0.8-0.2,1.1-0.5l35.7-35.7c0.4-0.4,0.6-1,0.4-1.6c-0.1-0.6-0.6-1-1.2-1.2
		c-0.6-0.1-1.2,0-1.6,0.4L20.5,45.9c-0.5,0.5-0.6,1.2-0.4,1.8C20.4,48.3,20.9,48.7,21.6,48.7z"/>
	<path class="st0" d="M21.6,34.1c0.4,0,0.8-0.2,1.1-0.5l21.1-21.1c0.4-0.4,0.6-1,0.4-1.6c-0.1-0.6-0.6-1-1.2-1.2
		c-0.6-0.1-1.2,0-1.6,0.4L20.5,31.3c-0.5,0.5-0.6,1.2-0.4,1.8C20.4,33.7,20.9,34.1,21.6,34.1z"/>
	<path class="st0" d="M24.8,16.2c0.9,0,0.9-0.2,4.4-3.7c0.4-0.4,0.6-1,0.4-1.6c-0.1-0.6-0.6-1-1.2-1.2c-0.6-0.1-1.2,0-1.6,0.4
		l-3.2,3.2c-0.5,0.5-0.6,1.2-0.4,1.8C23.6,15.8,24.2,16.2,24.8,16.2z"/>
	<path class="st0" d="M46.4,66.1c0.6,0.6,1.7,0.6,2.3,0L78,36.9c0.6-0.6,0.6-1.7,0-2.3c-0.6-0.6-1.6-0.6-2.3,0L46.4,63.8
		C45.8,64.4,45.8,65.5,46.4,66.1L46.4,66.1z"/>
	<path class="st0" d="M75.7,49.2L61,63.8c-0.6,0.6-0.6,1.7,0,2.3c0.6,0.6,1.6,0.6,2.3,0L78,51.5c0.6-0.6,0.6-1.7,0-2.3
		C77.3,48.6,76.3,48.6,75.7,49.2L75.7,49.2z"/>
</g>
</svg>
