<?xml version="1.0" encoding="utf-8"?>
<!-- Generator: Adobe Illustrator 23.0.3, SVG Export Plug-In . SVG Version: 6.00 Build 0)  -->
<svg version="1.1" id="Capa_1" xmlns="http://www.w3.org/2000/svg" xmlns:xlink="http://www.w3.org/1999/xlink" x="0px" y="0px"
	 viewBox="0 0 97.3 97.3" style="enable-background:new 0 0 97.3 97.3;" xml:space="preserve">
<style type="text/css">
	.st0{fill:#99AC0D;}
</style>
<g>
	<g>
		<path class="st0" d="M95.4,39.3H79.8v-4c0-1-0.8-1.9-1.9-1.9H37c-1,0-1.9,0.8-1.9,1.9s0.8,1.9,1.9,1.9H76v14.5
			c0,12.8-6.8,24.7-17.8,31.1H21.8C10.8,76.4,4,64.5,4,51.8V37.2h12.7c1,0,1.9-0.8,1.9-1.9c0-1-0.8-1.9-1.9-1.9H2.1
			c-1,0-1.9,0.8-1.9,1.9v16.4c0,7.2,1.9,14.2,5.6,20.3c2.5,4.1,5.6,7.8,9.4,10.8H2.1c-1,0-1.9,0.8-1.9,1.9c0,6.9,5.6,12.5,12.5,12.5
			h59.2c6.9,0,12.5-5.6,12.5-12.5c0-1-0.8-1.9-1.9-1.9H64.9c3.4-2.8,6.4-6.1,8.8-9.8H79c10.1,0,18.3-8.2,18.3-18.3V41.2
			C97.3,40.2,96.4,39.3,95.4,39.3z M80.4,86.7c-0.9,3.9-4.4,6.8-8.5,6.8H12.7c-4.2,0-7.7-2.9-8.5-6.8h17.1h37.4H80.4z M79.8,51.8v-1
			h6.1v4.1c0,3.8-3.1,6.9-6.9,6.9h-0.4C79.4,58.5,79.8,55.1,79.8,51.8z M93.5,54.8c0,8-6.5,14.5-14.5,14.5h-3.2
			c0.6-1.2,1.1-2.5,1.6-3.8H79c5.9,0,10.7-4.8,10.7-10.7v-6c0-1-0.8-1.9-1.9-1.9h-8v-3.8h13.7V54.8z"/>
	</g>
</g>
<g>
	<g>
		<path class="st0" d="M41.8,10.7l-1-1.2c-1.4-1.8-1.5-4.4,0-6.2c0.7-0.8,0.5-2-0.3-2.7c-0.8-0.7-2-0.5-2.7,0.3
			c-2.6,3.2-2.5,7.7,0,10.9l1,1.2c1.9,2.4,1.9,5.7,0,8.1l-1,1.3c-0.7,0.8-0.5,2,0.3,2.7c0.3,0.3,0.8,0.4,1.2,0.4
			c0.6,0,1.1-0.2,1.5-0.7l1-1.3C44.8,19.7,44.8,14.4,41.8,10.7z"/>
	</g>
</g>
<g>
	<g>
		<path class="st0" d="M52.3,14.9l-1-1.2c-1.4-1.8-1.5-4.4,0-6.2c0.7-0.8,0.5-2-0.3-2.7c-0.8-0.7-2-0.5-2.7,0.3
			c-2.6,3.2-2.5,7.7,0,10.9l1,1.2c1.9,2.4,1.9,5.7,0,8.1l-1,1.3c-0.7,0.8-0.5,2,0.3,2.7c0.3,0.3,0.8,0.4,1.2,0.4
			c0.6,0,1.1-0.2,1.5-0.7l1-1.3C55.3,24,55.3,18.7,52.3,14.9z"/>
	</g>
</g>
<g>
	<g>
		<path class="st0" d="M31.3,14.9l-1-1.2c-1.4-1.8-1.5-4.4,0-6.2c0.7-0.8,0.5-2-0.3-2.7c-0.8-0.7-2-0.5-2.7,0.3
			c-2.5,3.2-2.5,7.7,0,10.9l1,1.2c1.9,2.4,1.9,5.7,0,8.1l-1,1.3c-0.7,0.8-0.5,2,0.3,2.7c0.3,0.3,0.8,0.4,1.2,0.4
			c0.6,0,1.1-0.2,1.5-0.7l1-1.3C34.3,24,34.3,18.7,31.3,14.9z"/>
	</g>
</g>
<g>
	<g>
		<path class="st0" d="M28.7,34c-0.4-0.4-0.8-0.6-1.3-0.6s-1,0.2-1.3,0.6c-0.4,0.4-0.6,0.8-0.6,1.3c0,0.5,0.2,1,0.6,1.3
			c0.4,0.4,0.8,0.6,1.3,0.6s1-0.2,1.3-0.6c0.4-0.4,0.6-0.8,0.6-1.3C29.2,34.8,29,34.3,28.7,34z"/>
	</g>
</g>
<g>
	<g>
		<path class="st0" d="M68.8,49.9c-1,0-1.9,0.8-1.9,1.9c0,7-2.9,14-7.8,19c-0.7,0.7-0.7,1.9,0,2.7c0.4,0.4,0.9,0.5,1.3,0.5
			c0.5,0,1-0.2,1.3-0.6c5.7-5.7,8.9-13.6,8.9-21.7C70.7,50.7,69.9,49.9,68.8,49.9z"/>
	</g>
</g>
<g>
	<g>
		<path class="st0" d="M55.9,75.9c-0.5-0.9-1.7-1.2-2.6-0.7l0,0c-0.9,0.5-1.2,1.7-0.7,2.6c0.3,0.6,1,1,1.7,1c0.3,0,0.6-0.1,0.9-0.2
			l0,0C56.1,78,56.4,76.8,55.9,75.9z"/>
	</g>
</g>
</svg>
