<?xml version="1.0" encoding="utf-8"?>
<!-- Generator: Adobe Illustrator 23.0.3, SVG Export Plug-In . SVG Version: 6.00 Build 0)  -->
<svg version="1.1" id="Capa_1" xmlns="http://www.w3.org/2000/svg" xmlns:xlink="http://www.w3.org/1999/xlink" x="0px" y="0px"
	 viewBox="0 0 97.3 97.3" style="enable-background:new 0 0 97.3 97.3;" xml:space="preserve">
<style type="text/css">
	.st0{fill:#99AC0D;}
</style>
<g>
	<g>
		<path class="st0" d="M77.3,47.4l2.9,2.9c0.6,0.6,1.5,0.6,2,0c0.6-0.6,0.6-1.5,0-2l-2.9-2.9c-0.3-0.3-0.6-0.4-1-0.4s-0.7,0.1-1,0.4
			C76.7,46,76.7,46.9,77.3,47.4z"/>
	</g>
</g>
<g>
	<g>
		<path class="st0" d="M45.4,79.3l2.9,2.9c0.6,0.6,1.5,0.6,2,0c0.6-0.6,0.6-1.5,0-2l-2.9-2.9c-0.3-0.3-0.6-0.4-1-0.4
			c-0.4,0-0.7,0.1-1,0.4C44.9,77.9,44.9,78.8,45.4,79.3z"/>
	</g>
</g>
<g>
	<g>
		<path class="st0" d="M57.2,66.6c0.1,0.8,0.7,1.4,1.5,1.3c0.8-0.1,1.4-0.7,1.3-1.5c-0.1-1.7,0.5-3.3,1.8-4.6
			c1.2-1.2,2.9-1.9,4.6-1.8c0.8,0.1,1.5-0.5,1.5-1.3c0.1-0.8-0.5-1.5-1.3-1.5c-0.2,0-0.4,0-0.6,0c-2.3,0-4.5,0.9-6.2,2.6
			C58,61.7,57,64.1,57.2,66.6z"/>
	</g>
</g>
<g>
	<g>
		<path class="st0" d="M0,77.2C0.2,84,10.2,94.3,23.6,94.7c0.4,0.3,0.9,0.6,1.4,0.9c2.9,1.6,8.8,3.5,15.8-1.5
			c1.6,0.9,3.3,1.5,5.2,1.7c8,1,15.9-4.6,18.3-6.5c1.3,0.5,2.7,0.8,4.2,0.8c4.2,0,8.6-2.5,13.9-7.7c5.5-5.5,7.9-10.1,7.7-14.4
			c-0.1-1.3-0.3-2.5-0.8-3.7c1.9-2.4,7.6-10.4,6.5-18.4c-0.2-1.9-0.8-3.6-1.7-5.1c4-5.7,3.6-10.6,2.4-13.8c-0.4-1.2-1-2.3-1.8-3.4
			C94.3,10.2,84,0.2,77.2,0C77.1,0,77,0,77,0c-3.4,0-5.6,2.4-5.9,6.4c-0.4,6.8-2.1,9-3.7,11.1c-1.1,1.4-2.3,2.9-2.9,5.7
			c-1.1,1.6-1.9,3.4-2.6,5.4c-1.2,0.5-2.2,1.1-3.2,1.8c-2.4,1.9-4.1,4.6-5.1,8.1c-5.8,0.6-9.1,4.4-9.8,5.3c-0.9,0.7-4.6,3.9-5.3,9.5
			c0,0.1,0,0.2,0,0.3c-4.3,1.2-7.4,3.5-9.2,6.7c-0.3,0.5-0.5,1-0.7,1.5c-2,0.7-3.8,1.5-5.4,2.6c-2.7,0.6-4.2,1.7-5.7,2.9
			c-2.1,1.6-4.2,3.3-11.1,3.7C2.3,71.3-0.1,73.6,0,77.2z M70.1,21.2c1.6-1.2,3.5-2,5.5-2.4c0.3-0.1,0.7-0.1,1-0.1
			c0.8,0,1.4-0.7,1.4-1.5c0-0.8-0.8-1.5-1.6-1.4c-1.9,0.2-3.8,0.8-5.5,1.6c1.4-2.1,2.6-5,3-10.8c0.1-0.9,0.2-3.8,3.2-3.7
			c2.7,0.1,6.3,2.4,9.2,6c2.7,3.3,4.4,7.2,5.2,11.4c-1.7-1.4-3.8-2.6-5.9-3.4c-1-0.3-2-0.6-3-0.8c-0.8-0.2-1.5,0.3-1.7,1.1
			c-0.2,0.8,0.4,1.5,1.1,1.7c3.9,0.8,7.7,2.9,10.1,6.1c0,0,0,0,0,0c3.1,4.1,2.8,9.1,0.2,13.4c-1.7-1.9-3.8-3.2-6-4.6c0,0,0,0-0.1,0
			c-5.5-3.4-11.9-6.3-18.5-6.3c-0.9,0-1.7,0.1-2.5,0.2C66.4,24.9,68.1,22.7,70.1,21.2z M63.4,31C63.4,31,63.5,31,63.4,31
			c5.6-1.8,13.8,0.3,22.3,5.8c1.7,1.1,3.5,2.3,4.8,3.9c0,0,0,0,0,0c4.1,5,2.4,11.7-0.4,16.9c-0.8,1.6-1.7,2.9-2.4,3.8
			c-2.5-3.7-6.8-7.3-12-11.6c-5.7-4.7-11.5-10.7-19.2-11.4C57.9,34.6,60.2,32.1,63.4,31z M45.6,46c0.1-0.1,0.2-0.2,0.3-0.3
			c2-2.8,5.7-4.4,9.1-4.4c7.6,0,13.4,6.3,18.9,10.8c5.8,4.9,10.5,8.7,12.4,12.6c0,0,0,0,0,0c3.1,5.8-2.2,11.8-6,15.6
			c-4.2,4.2-9.9,9.1-16.1,5.8c-4.5-2.4-7.6-6.7-10.9-10.6c-2.8-3.4-5.9-6.6-8.4-10.2c0,0,0,0,0-0.1c-2.5-3.7-3.8-7.2-3.7-10.4
			c0,0,0,0,0,0C41.3,51.5,42.9,47.9,45.6,46z M18.5,78.7c0-6,3.7-11.1,9.1-13.4c-0.3,2.1-0.2,4.3,0.3,6.8c0.1,0.8,0.9,1.3,1.7,1.1
			c0.8-0.1,1.3-0.9,1.1-1.7c-0.6-3.1-0.5-5.8,0.3-8c1.2-3.5,4.1-5.8,7.5-6.9c0.3,3.3,1.7,6.6,4,10.1c0,0,0,0,0,0.1
			c0.8,1.2,1.7,2.4,2.7,3.5c1.6,1.9,6.7,8,7,8.3c3.3,3.9,6.2,7.1,9.3,9.2c-2.9,2.1-9.2,6-15.2,5.2c-2.1-0.3-3.9-1.1-5.6-2.4
			c0,0,0,0,0,0c-1.9-1.5-3.2-3.7-4.5-5.7c-1.6-2.5-2.8-5-3.8-7.5c-0.2-0.4-0.3-0.9-0.7-1.2c-0.4-0.3-0.9-0.3-1.3-0.2
			c-0.6,0.2-0.9,0.7-0.9,1.3c0,0.3,0.1,0.6,0.2,1c1.4,3.6,3.4,7.3,6,11c0.6,0.9,1.3,1.7,2,2.5c0,0,0.7,0.7,0.7,0.7
			c-4,2.6-8.2,2.8-11.9,0.8C21.7,90.5,18.5,84.5,18.5,78.7C18.5,78.7,18.5,78.7,18.5,78.7z M6.6,73.9c5.9-0.4,8.8-1.6,10.8-3
			c-0.8,1.5-1.3,3.2-1.6,5c-0.8,5.4,0.9,11.3,4.4,15.5c-4.1-0.7-8.1-2.5-11.4-5.2c-3.6-2.9-5.9-6.5-6-9.2C2.8,74.2,5.6,74,6.6,73.9z
			"/>
	</g>
</g>
</svg>
