<svg width="188" height="81" viewBox="0 0 188 81" xmlns="http://www.w3.org/2000/svg"><title>логотип БелЛакт</title><path d="M153.404 2.273c-3.887 1.147-5.65 3.15-7.589 6.09l.072.055c2.923-3.574 6.067-5.01 8.75-5.445-4.824 2.868-5.436 5.193-6.442 7.455l.053.03c3.158-5.147 7.549-8.03 13.1-7.936-7.2 2.773-9.655 7.58-9.217 13.646l8.47-1.8c.585-.105.726-.696.959-1.049.556-.835 1.945-.782 2.642 0 .224.251.126.957-.337 1.117-4.016 1.473-7.712 2.732-11.734 4.206.926 4.952 4.53 10.349 13.32 10.94-7.712 1.084-12.953-2.067-16.62-7.267l-.043.058c.823 2.916 3.71 6.115 8.959 7.665-5.431-.332-9.937-3.25-12.437-6.974l-.084.073c1.609 3.566 4.98 6.338 10.627 7.955-8.502-1.339-15.363-7.37-15.05-14.849.333-7.703 6.18-12.735 12.601-13.97m22.639 13.667c0 6.559-5.228 11.872-11.673 11.872-5.238 0-9.668-3.509-11.15-8.342l18.936-7.75-.023-.046c-3.752.597-6.6 1.763-7.547 1.116-2.983-2.026-4.209.95-4.323.976l-7.573 1.614c0-6.164 5.228-11.314 11.68-11.314 6.445 0 11.673 5.321 11.673 11.874M158.5 32.28c10.387 0 18.77-7.105 18.77-15.868 0-8.811-8.383-15.914-18.77-15.914-10.337 0-18.816 7.103-18.816 15.914 0 8.763 8.479 15.868 18.816 15.868m4.378-18.056a.5.5 0 0 0 .503-.495.498.498 0 0 0-.998 0c0 .272.23.495.495.495m2.792 53.27c-3.547 1.784-3.703 4.596.881 5.415 5.22.937 11.574-1.838 12.253-6.838.389-2.927-4.96-6.268-14.423-5.413-12.09 1.095-17.833 4.064-21.655 7.787-.469.458-.005.78.548.335 3.807-3.093 8.886-5.579 16.847-5.414 4.782.101 8.328 2.731 5.549 4.129m14.104-.499c-1.442 6.214-8.189 8.913-18.394 8.694-10.584-.224-18.934-3.953-26.194-9.041-3.097-2.175-7.015-3.678-11.758-3.726-22.428-.24-44.86 0-67.288 0 3.272 5.49 9.895 8.167 24.096 6.284 14.844-1.972 29.976-2.718 45.17-3.73 2.8-.181 6.188.58 9.78 3.034 9.564 6.526 18.766 13.015 27.243 12.455 9.513-.626 16-5.115 18.305-13.62.458-1.693-.744-1.278-.96-.35m5.08-31.054c-.563-.507-1.79-.512-3.52-.482-5.57.111-10.954.094-15.41-.138-3.363-.177-5.202 1.22-5.668 3.942-.198 1.158-.4 2.36-.208 3.518.146.89 2.35 1.315 3.249-1.308.45-1.316 1.72-1.89 3.8-1.66 1.243.138 2.185.814 2.21 2.144.075 3.573-.139 7.14-.067 10.71.02.999-.265 2.17-1.59 2.694-1.412.559-1.996 1.039-1.173 2.144.458.611 1.558.996 3.042 1.038 2.991.077 5.99.045 8.98-.139 1.124-.07 2.166-.467 2.693-1.24.618-.91.396-1.625-1.38-2.284-1.14-.426-1.68-1.557-1.727-2.833-.127-3.342-.082-6.682 0-10.022.023-1.063.263-2.134 1.867-2.212.575-.029 1.155 0 1.727.07.92.114 1.521.697 1.723 1.59.203.881 1.264 1.892 2.286 2.14.859.215 1.88-.746 1.658-2.766-.181-1.632-.764-3.333-2.491-4.906M133.72 58.677c2.738.392 5.533.058 8.292 0 .786-.009 1.62-.347 2.349-.896.621-.465.928-1.173-.274-1.794-1.18-.613-1.625-1.602-1.66-2.77-.038-1.31.036-2.623 0-3.935-.011-.51.011-1.072.899-1.105.584-.022.994.094 1.59.826 2.236 2.761 4.458 5.589 6.499 8.573.26.385.6.926 1.795.968 2.46.077 4.932-.17 7.39-.277.677-.032 1.597.117 2.004-.557.53-.862.208-1.866-.897-2.138-1.482-.368-2.176-.791-2.554-1.179-2.777-2.797-5.601-5.542-8.362-8.357-.677-.691-.652-1.435 0-2.146 1.7-1.848 3.301-3.657 5.39-5.525.74-.665 1.673-.61 2.693-.968 1.085-.382 1.365-1.723-1.313-2.002a37.613 37.613 0 0 0-7.813 0c-1.727.176-1.217 1.127-.204 1.657.63.32 1.107.887.347 2.14-2.22 3.662-3.616 5.192-5.108 6.01-2.11 1.158-2.508.232-2.492-.684.034-1.799-.002-3.603.136-5.394.071-.863.522-1.284 1.523-1.727 1.258-.565.736-1.775-1.18-2.002-3.176-.389-6.417-.48-9.602-.144-1.842.2-2.292 1.565-.827 2.421.96.565 1.35 1.306 1.379 2.28.129 4.239.306 8.481.137 12.717-.072 1.93-1.086 2.92-2.203 3.525-1.261.673-1.084 2.036 2.066 2.483m-21.421-7.945c.328-1.803 1.492-2.602 3.043-2.831.763-.118 1.316-.422 1.657-.692.792-.631 1.366-.525 1.45.485.152 1.722.291 3.468.068 5.18-.273 2.177-1.717 3.066-3.175 2.974-2.113-.13-2.796-1.487-3.043-2.765a6.444 6.444 0 0 1 0-2.35m-1.657 8.432c2.015.226 4.088-.39 6.08-1.866 1.027-.762 2.191-1.11 2.97-.207.783.908 1.53 2.285 3.733 2.21 3-.102 5.551-1.938 6.703-3.94.615-1.065-.293-.632-1.382-.825-1.601-.293-1.654-2.548-1.727-4.354-.12-3.11.295-6.241-.068-9.335-.417-3.587-5.085-5.582-9.606-5.667-4.476-.077-8.609 2.004-10.918 4.012-2.455 2.128.34 5.519 3.387 2.833 1.292-1.145 1.65-3.287 3.32-4.074 2.81-1.337 4.775.034 5.11 2.69.106.847.172 1.713.069 2.559-.224 1.772-1.263 2.636-2.419 2.835-1.31.218-2.713-.13-4.217.069-4.91.651-7.408 3.45-7.665 6.01-.32 3.168 1.178 6.434 6.63 7.05M69.319 34.079h3.591c.622-1.454 1.086-2.874 1.8-4.284.377-.74 1.146-1.242 2.005.208 4.749 8.058 9.4 16.295 13.955 24.463.974 1.74-.042 1.691-.827 2.142-.918.528-.832 2.006 2.35 2.14 2.935.127 7.21-.062 10.78-.274 1.821-.108 1.968-1.658.486-2.144-.989-.323-1.309-.73-1.526-1.106C95.3 43.783 88.877 32.175 82.383 20.88c-.794-1.375-2.123-1.815-3.18-1.728-2.188.185-4.4.153-6.565.483-2.04.31-2.04.937-.484 2.003 1.287.887 1.486 2.373.896 3.803-1.208 2.93-2.462 5.735-3.73 8.638M58.056 56.194c-1.353.324-1.508 1.207-.275 2.35.661.614 2.803.909 5.112.759 1.15-.076 1.358-.78.828-1.593-.33-.498.035-1.102.345-1.723 1.609-3.255 2.992-6.613 4.56-9.882.342-.716.834-.767 1.175-.139 1.545 2.805 3.106 5.612 4.49 8.5.649 1.338-.224 1.534-.827 2.071-1.08.97-.269 2.22 1.866 2.421 2.617.24 5.26.177 7.879 0 1.61-.11 2.954-.691 3.314-1.592.247-.608-.129-1.041-.758-1.105-.527-.05-.82-.26-1.036-.62-3.69-6.152-7.159-12.335-10.57-18.59-.582-1.052-1.723-2.121-2.628-2.075-1.167.06-2.676-.095-3.8.346-1.472.578-2.25 1.209-1.45 2.49.29.473.61.936.828 1.452.41.988.148 1.98-.348 3.038-4.084 8.754-6.984 13.477-8.705 13.892M42.854 43.89c-.445-3.67 1.66-6.138 4.426-6.15 2.129-.01 3.88 2.003 3.866 5.186-.008.908-.536 1.604-1.242 1.592-1.35-.036-2.624-.341-3.594 0-.485.162-.962.32-1.452.48-1.36.444-1.896-.224-2.004-1.108m14.579 10.23c.544-1.21-.613-2.534-1.93-1.585-1.78 1.263-3.895 2.219-6.503 1.858-3.77-.517-5.432-2.5-5.592-4.763-.094-1.347 1.01-2.51 2.696-2.624 3.307-.237 6.631.114 9.95.203 1.505.039 2.382-.396 2.347-2.006-.143-6.769-5.09-9.72-10.643-10.088-6.236-.41-12.95 3.816-13.334 11.956-.258 5.368 3.172 11.352 10.777 12.024 3.816.337 10.325-.666 12.232-4.975m-33.925-3.112c-.618 2.908-2.357 3.987-4.148 4.424-.87.213-1.81.15-2.694 0-1.746-.291-1.886-2.48-2.279-4.424v-5.805c.089-1.24.74-2.274 2.349-2.624.74-.163 1.526-.106 2.278 0 2.834.397 4.126 2.548 4.632 4.975.237 1.13.1 2.327-.138 3.454m1.584-11.4c-2.664-.402-5.387.181-8.084.276-2.179-.16-2.48-1.516-2.621-2.972V26.475c.147-1.722.933-2.99 3.107-3.247 1.313.026 2.626.049 3.94.07 2.535.457 4.603 2.098 6.77 4.424 1.142 1.221 2.574.854 3.382-.763.326-.639.13-1.463 0-2.348-.198-1.397-.631-2.775-1.655-4.215-.6-.844-1.746-.785-3.036-.554-1.625.303-10.57.142-17.436.045-2.585-.034-4.707-.524-6.274-.252-3.158.554-2.144 2.7-.688 2.973 1.603.3 2.64 2.37 2.629 4.28v23.638c-.139 2.718-1.291 4.604-3.457 5.668-1.197.18-1.472.737-.832 1.657.122.3.696.601 1.733.898 7.44-.135 14.808-.27 22.522 0 2.937.102 8.962-4.026 8.366-10.641-.445-5.37-4.272-7.882-8.366-8.5" fill="#004B8D" fill-rule="evenodd"/></svg>