<svg id="Группа_1" data-name="Группа 1" xmlns="http://www.w3.org/2000/svg" width="164.375" height="51.125" viewBox="0 0 164.375 51.125">
  <metadata><?xpacket begin="﻿" id="W5M0MpCehiHzreSzNTczkc9d"?>
<x:xmpmeta xmlns:x="adobe:ns:meta/" x:xmptk="Adobe XMP Core 5.6-c142 79.160924, 2017/07/13-01:06:39        ">
   <rdf:RDF xmlns:rdf="http://www.w3.org/1999/02/22-rdf-syntax-ns#">
      <rdf:Description rdf:about=""/>
   </rdf:RDF>
</x:xmpmeta>
                                                                                                    
                                                                                                    
                                                                                                    
                                                                                                    
                                                                                                    
                                                                                                    
                                                                                                    
                                                                                                    
                                                                                                    
                                                                                                    
                                                                                                    
                                                                                                    
                                                                                                    
                                                                                                    
                                                                                                    
                                                                                                    
                                                                                                    
                                                                                                    
                                                                                                    
                                                                                                    
                           
<?xpacket end="w"?></metadata>
<defs>
    <style>
      .cls-1 {
        fill: #004b8d;
        fill-rule: evenodd;
      }
    </style>
  </defs>
  <path id="Узнай_что_предлагаем_МЫ" data-name="Узнай, что предлагаем МЫ" class="cls-1" d="M63.823,339.5a6.887,6.887,0,0,0,2.336-1.622l8.8-8.968a0.824,0.824,0,0,0,.008-1.347,0.9,0.9,0,0,0-1.392.061l-8.8,8.949a4.47,4.47,0,0,1-1.412,1.035,1.691,1.691,0,0,1-1.214.131,1.177,1.177,0,0,1-.288-0.149,1.332,1.332,0,0,1-.262-0.225,1.277,1.277,0,0,0-.742-0.428,0.879,0.879,0,0,0-.724.211,0.9,0.9,0,0,0-.352.642,1,1,0,0,0,.249.737,3.208,3.208,0,0,0,1.5,1.071A3.268,3.268,0,0,0,63.823,339.5Zm3.1-2.7-2.474-12.324a0.877,0.877,0,0,0-1.156-.767,0.857,0.857,0,0,0-.78,1.131l2.853,12.514Zm11.888,7.445a3.956,3.956,0,0,0,1.8-.783,2.8,2.8,0,0,0,.982-1.523,2.227,2.227,0,0,0-.06-1.369,2.826,2.826,0,0,0-.828-1.153,3.45,3.45,0,0,0-1.416-.717l-0.04.155a3.116,3.116,0,0,0,1.38.057,2.468,2.468,0,0,0,1.154-.549,2.1,2.1,0,0,0,.666-1.1,2.465,2.465,0,0,0-.138-1.626,3.766,3.766,0,0,0-1.153-1.454,5.241,5.241,0,0,0-1.986-.947,5.948,5.948,0,0,0-2.3-.14,4.676,4.676,0,0,0-1.95.674,1.143,1.143,0,0,0-.495.6,0.619,0.619,0,0,0,.078.619,1.012,1.012,0,0,0,.63.4,1.1,1.1,0,0,0,.756-0.167,2.972,2.972,0,0,1,1.3-.387,4.751,4.751,0,0,1,1.57.158,2.874,2.874,0,0,1,1.474.773,1.193,1.193,0,0,1,.282,1.147,1.518,1.518,0,0,1-.57.885,1.317,1.317,0,0,1-1.069.179l-1.084-.28a1.22,1.22,0,0,0-.771.027,0.67,0.67,0,0,0-.431.468,0.719,0.719,0,0,0,.145.636,1.15,1.15,0,0,0,.656.418l1.1,0.285a1.856,1.856,0,0,1,1.03.69,1.294,1.294,0,0,1,.192,1.134,1.435,1.435,0,0,1-.932,1.009,2.931,2.931,0,0,1-1.812.017,4.426,4.426,0,0,1-1.535-.7,4.152,4.152,0,0,1-.984-0.988,1.157,1.157,0,0,0-.629-0.482,1.008,1.008,0,0,0-.759.02,0.81,0.81,0,0,0-.5.564,0.94,0.94,0,0,0,.132.767,6.087,6.087,0,0,0,.9,1.029,6.2,6.2,0,0,0,1.276.9,7.382,7.382,0,0,0,1.664.637A5.274,5.274,0,0,0,78.808,344.248Zm14.264,2.9a1.055,1.055,0,0,0,.389-0.671l1.621-8.751a1.046,1.046,0,0,0-.121-0.775,0.935,0.935,0,0,0-.657-0.406,1.007,1.007,0,0,0-.769.142,0.984,0.984,0,0,0-.42.675l-1.621,8.751a0.992,0.992,0,0,0,.817,1.189A0.919,0.919,0,0,0,93.072,347.147Zm-8.063-1.493a1.01,1.01,0,0,0,.408-0.667l1.621-8.751a0.962,0.962,0,0,0-.817-1.189,0.942,0.942,0,0,0-.749.146,1.022,1.022,0,0,0-.4.678l-1.621,8.752a1.03,1.03,0,0,0,.132.767,0.922,0.922,0,0,0,.645.414A0.982,0.982,0,0,0,85.009,345.654Zm7.74-3.133,0.328-1.77-6.9-1.279-0.328,1.77Zm11.279,5.58a5.175,5.175,0,0,0,2.029-1.775,5.9,5.9,0,0,0,.966-2.743l0.775,0.082a5.556,5.556,0,0,0-.425-2.9,5.528,5.528,0,0,0-9.507-1.011A5.561,5.561,0,0,0,96.84,342.5a5.89,5.89,0,0,0,.367,2.885,5.189,5.189,0,0,0,1.611,2.163A5.068,5.068,0,0,0,104.028,348.1Zm-3.842-1.977a3.529,3.529,0,0,1-1.131-1.468,3.877,3.877,0,0,1-.265-1.949,3.92,3.92,0,0,1,.671-1.869,3.533,3.533,0,0,1,1.415-1.2,3.609,3.609,0,0,1,3.61.383,3.5,3.5,0,0,1,1.111,1.466,3.992,3.992,0,0,1,.253,1.968,3.938,3.938,0,0,1-.659,1.851,3.481,3.481,0,0,1-1.395,1.2A3.6,3.6,0,0,1,100.186,346.124Zm6.775,2.671a0.986,0.986,0,0,0,.366-0.695l0.471-4.435-1.574-.891-0.6,2.068-0.324,3.043A1.032,1.032,0,0,0,106.961,348.8Zm10.274,0.229a4.393,4.393,0,0,0,1.718-1.517,4.215,4.215,0,0,0,.693-2.215l-1.259-.047a2.239,2.239,0,0,1-.448,1.284,2.83,2.83,0,0,1-1.1.879,3.326,3.326,0,0,1-1.542.282,3.652,3.652,0,0,1-1.605-.41,2.618,2.618,0,0,1-1.1-1.122,3.665,3.665,0,0,1-.35-1.864l0.184-4.917a1.02,1.02,0,1,0-2.039-.076l-0.184,4.916a5.717,5.717,0,0,0,.525,2.822,4.25,4.25,0,0,0,1.654,1.793,5.1,5.1,0,0,0,2.446.682A4.857,4.857,0,0,0,117.235,349.024ZM120,349.318a1.012,1.012,0,0,0,.307-0.719l0.334-8.914a0.961,0.961,0,0,0-.981-1.057,1.01,1.01,0,0,0-.74.252,0.98,0.98,0,0,0-.317.729l-0.335,8.913A1.04,1.04,0,0,0,120,349.318Zm-2.422-12.54a3.222,3.222,0,0,0,1.325-.911,2.157,2.157,0,0,0,.531-1.351,1.008,1.008,0,0,0-.224-0.709,0.831,0.831,0,0,0-.639-0.3,0.841,0.841,0,0,0-.65.256,0.992,0.992,0,0,0-.286.69,1.011,1.011,0,0,1-.551.83,2.587,2.587,0,0,1-2.6-.1,1.01,1.01,0,0,1-.488-0.869,1.015,1.015,0,0,0-.224-0.709,0.831,0.831,0,0,0-.639-0.3,0.841,0.841,0,0,0-.65.256,0.992,0.992,0,0,0-.286.69,2.162,2.162,0,0,0,.428,1.387,3.224,3.224,0,0,0,1.264,1.008A5.031,5.031,0,0,0,117.574,336.778Zm6.965,15.771a4.412,4.412,0,0,0,.729-1,6.028,6.028,0,0,0,.531-1.312,4.67,4.67,0,0,0,.181-1.345,2.375,2.375,0,0,0-.441-1.39,1.347,1.347,0,0,0-1.161-.495,1.326,1.326,0,0,0-.972.381,1.221,1.221,0,0,0-.34.908,1.055,1.055,0,0,0,.173.6,2.466,2.466,0,0,0,.369.422,3.043,3.043,0,0,1,.369.4,0.93,0.93,0,0,1,.172.557,1.432,1.432,0,0,1-.212.825q-0.222.345-.446,0.64a1.079,1.079,0,0,0-.215.694,0.558,0.558,0,0,0,.138.358,0.451,0.451,0,0,0,.374.151A1.143,1.143,0,0,0,124.539,352.549Zm15.117-7.765a3.472,3.472,0,0,0,1.307-1.27,2.76,2.76,0,0,0,.348-1.7l-1.055.108a1.12,1.12,0,0,1-.626,1.049,4.037,4.037,0,0,1-1.821.57,2.175,2.175,0,0,1-2.094-.71,4.421,4.421,0,0,1-.808-2.289l-0.155-1.512a1.041,1.041,0,0,0-1.817-.558,0.985,0.985,0,0,0-.213.766l0.156,1.512a7.247,7.247,0,0,0,.718,2.59A3.882,3.882,0,0,0,135.164,345a4.05,4.05,0,0,0,2.435.413A5.1,5.1,0,0,0,139.656,344.784Zm2.984,3.112a1.009,1.009,0,0,0,.2-0.755l-0.91-8.854a0.962,0.962,0,0,0-1.119-.91,1.013,1.013,0,0,0-.7.353,0.981,0.981,0,0,0-.212.766l0.91,8.853A1.039,1.039,0,0,0,142.64,347.9Zm18.692-3.237a1,1,0,0,0,.137-0.77l-1.08-5.617a5.172,5.172,0,0,0-.925-2.215,3.414,3.414,0,0,0-1.623-1.185,4.017,4.017,0,0,0-2.078-.109,4.669,4.669,0,0,0-2.162.986,3.992,3.992,0,0,0-1.25,1.818,4.569,4.569,0,0,0-.117,2.355l1.63-.314a2.589,2.589,0,0,1,.311-1.933,2.421,2.421,0,0,1,3.249-.737,2.527,2.527,0,0,1,.962,1.72l1.08,5.617A1.039,1.039,0,0,0,161.332,344.659Zm-13.1,2.519a1.006,1.006,0,0,0,.137-0.77l-1.68-8.74a0.964,0.964,0,0,0-1.195-.809,1.012,1.012,0,0,0-.664.413,0.989,0.989,0,0,0-.145.782l1.681,8.739A1.039,1.039,0,0,0,148.232,347.178Zm6.56-1.261a1.01,1.01,0,0,0,.137-0.77l-1.08-5.617a5.162,5.162,0,0,0-.925-2.215,3.4,3.4,0,0,0-1.623-1.185,4.017,4.017,0,0,0-2.078-.11,3.951,3.951,0,0,0-1.956.947,3.891,3.891,0,0,0-1.122,1.794,4.847,4.847,0,0,0-.078,2.347l1.237-.238a2.572,2.572,0,0,1,.321-1.936,2.265,2.265,0,0,1,1.553-1.031,2.212,2.212,0,0,1,1.706.293,2.523,2.523,0,0,1,.962,1.719l1.08,5.617A1.04,1.04,0,0,0,154.792,345.917Zm17.465-4.749a5.063,5.063,0,0,0,1.318-2.422,6.235,6.235,0,0,0-1.614-5.53,5.15,5.15,0,0,0-2.418-1.339,6.076,6.076,0,0,0-5.475,1.587,5.146,5.146,0,0,0-1.327,2.426,6.2,6.2,0,0,0,1.6,5.532,5.14,5.14,0,0,0,2.419,1.339A6.11,6.11,0,0,0,172.257,341.168Zm-4.951-.2a3.429,3.429,0,0,1-1.578-.916,3.989,3.989,0,0,1-.982-1.736,4.031,4.031,0,0,1-.1-2,3.417,3.417,0,0,1,.84-1.628,3.769,3.769,0,0,1,3.534-1.025,3.342,3.342,0,0,1,1.571.93,4.1,4.1,0,0,1,.975,1.747,4.041,4.041,0,0,1,.109,1.989,3.376,3.376,0,0,1-.833,1.616A3.768,3.768,0,0,1,167.306,340.969Z" transform="translate(-38 -323.688)"/>
  <path id="предлагаем_МЫ" data-name="предлагаем МЫ" class="cls-1" d="M46.625,356.909a0.987,0.987,0,0,0,.6-0.512l2.278-4.361a5.723,5.723,0,0,0,.738-2.774,4.259,4.259,0,0,0-.724-2.33,5.107,5.107,0,0,0-1.916-1.666,4.887,4.887,0,0,0-2.378-.588,4.4,4.4,0,0,0-2.207.619,4.193,4.193,0,0,0-1.582,1.712l1.117,0.583a2.222,2.222,0,0,1,.961-0.976,2.856,2.856,0,0,1,1.379-.307,3.344,3.344,0,0,1,1.5.4,3.653,3.653,0,0,1,1.283,1.064,2.649,2.649,0,0,1,.506,1.472,3.657,3.657,0,0,1-.489,1.843l-2.278,4.361A1.032,1.032,0,0,0,46.625,356.909Zm-7.277-3.8a1.011,1.011,0,0,0,.586-0.518l4.13-7.906a1.039,1.039,0,0,0-1.209-1.466,0.979,0.979,0,0,0-.6.521l-4.13,7.907A1.04,1.04,0,0,0,39.348,353.109ZM49.721,363.46a1.006,1.006,0,0,0,.544-0.562l2.114-4.969a5.148,5.148,0,0,0,1.034,1.886,5.061,5.061,0,0,0,4.5,1.654,5.188,5.188,0,0,0,2.459-1.105,5.9,5.9,0,0,0,1.724-2.342,5.562,5.562,0,0,0,.44-2.9,5.629,5.629,0,0,0-6.205-4.8,5.345,5.345,0,0,0-2.583,1.064,5.771,5.771,0,0,0-1.793,2.324l-3.57,8.392A1.039,1.039,0,0,0,49.721,363.46Zm4.36-5.317a3.458,3.458,0,0,1-.644-1.73,3.944,3.944,0,0,1,.324-1.938,3.989,3.989,0,0,1,1.179-1.6,3.47,3.47,0,0,1,1.693-.736,3.608,3.608,0,0,1,3.34,1.421,3.565,3.565,0,0,1,.644,1.731,3.925,3.925,0,0,1-.323,1.96,3.884,3.884,0,0,1-1.18,1.573,3.56,3.56,0,0,1-1.693.736A3.609,3.609,0,0,1,54.081,358.143Zm15.558,7.972a5.527,5.527,0,0,0,1.883-.292,0.709,0.709,0,0,0,.5-0.485,0.947,0.947,0,0,0-.129-0.74,0.876,0.876,0,0,0-.51-0.4,1.136,1.136,0,0,0-.689.01,3.936,3.936,0,0,1-1.165.165,3.789,3.789,0,0,1-1.277-.189,4.017,4.017,0,0,1-1.753-1.121,3.652,3.652,0,0,1-.871-1.731,3.827,3.827,0,0,1,.155-2.017,4.48,4.48,0,0,1,1.029-1.731,3.212,3.212,0,0,1,1.6-.9,3.634,3.634,0,0,1,2.007.151,2.917,2.917,0,0,1,2.085,2.511,4.287,4.287,0,0,1-.195,1.824l0.956-.268-7.578-2.564-0.513,1.515,7.635,2.584a0.917,0.917,0,0,0,.705-0.025,0.841,0.841,0,0,0,.448-0.514,6.3,6.3,0,0,0,.335-2.832,4.5,4.5,0,0,0-1.011-2.348,5.008,5.008,0,0,0-2.317-1.512,5.457,5.457,0,0,0-2.88-.225,5.046,5.046,0,0,0-2.437,1.244,5.882,5.882,0,0,0-1.58,2.517,5.581,5.581,0,0,0-.228,2.952,5.191,5.191,0,0,0,1.285,2.5A6.135,6.135,0,0,0,69.639,366.115Zm11.55,2.89a4.871,4.871,0,0,0,2.11-1.476,6.466,6.466,0,0,0,1.313-2.624l1.142,0.3a5.754,5.754,0,0,0,.041-2.976,5.156,5.156,0,0,0-1.394-2.388,6.076,6.076,0,0,0-5.516-1.435,5.148,5.148,0,0,0-2.381,1.406,5.747,5.747,0,0,0-1.415,2.618A6.051,6.051,0,0,0,75,365.37a4.868,4.868,0,0,0,3.644,3.708A4.288,4.288,0,0,0,81.189,369.005Zm-0.327,4.472a5.34,5.34,0,0,0,2.4-1.493,5.923,5.923,0,0,0,1.4-2.6l1.088-4.181-1.152-.734-1.082,1.537L82.8,368.754a4.623,4.623,0,0,1-1.019,2.008,3.307,3.307,0,0,1-1.591.991,3.522,3.522,0,0,1-1.829,0,4.377,4.377,0,0,1-1.7-.837,3.689,3.689,0,0,1-1.049-1.368A1.018,1.018,0,0,0,75.1,369a0.963,0.963,0,0,0-.766-0.034,0.891,0.891,0,0,0-.523.463,0.852,0.852,0,0,0,.008.726,5.6,5.6,0,0,0,1.619,2.116,6.384,6.384,0,0,0,2.433,1.211A5.45,5.45,0,0,0,80.862,373.477Zm-3.033-6.969a3.425,3.425,0,0,1-.887-1.594,3.975,3.975,0,0,1,.043-1.994,4.031,4.031,0,0,1,.936-1.771,3.407,3.407,0,0,1,1.554-.97,3.767,3.767,0,0,1,3.561.927,3.341,3.341,0,0,1,.875,1.6,4.105,4.105,0,0,1-.056,2,4.041,4.041,0,0,1-.924,1.764,3.35,3.35,0,0,1-1.542.963A3.767,3.767,0,0,1,77.829,366.508Zm14.458-4.937-5.7,8.039a0.757,0.757,0,0,0-.176.679,1.075,1.075,0,0,0,.434.568,1.035,1.035,0,0,0,.741.229,0.868,0.868,0,0,0,.61-0.386l5.367-7.693-1-.185,2.146,9.081a0.967,0.967,0,0,0,.44.59,1.068,1.068,0,0,0,.766.04,0.946,0.946,0,0,0,.557-0.375,0.841,0.841,0,0,0,.09-0.706l-2.427-9.539a1.067,1.067,0,0,0-.283-0.561,0.957,0.957,0,0,0-.5-0.256,1,1,0,0,0-1.064.475h0Zm13.839,11.708a5.194,5.194,0,0,0,2.038-1.765,5.9,5.9,0,0,0,.979-2.738l0.775,0.086a5.551,5.551,0,0,0-.411-2.9,5.381,5.381,0,0,0-4.439-3.232,5.472,5.472,0,0,0-2.873.414,5.394,5.394,0,0,0-2.189,1.758,5.563,5.563,0,0,0-1.04,2.742,5.893,5.893,0,0,0,.352,2.887,5.178,5.178,0,0,0,1.6,2.17A5.067,5.067,0,0,0,106.127,373.279Zm-3.833-2a3.529,3.529,0,0,1-1.123-1.474,3.876,3.876,0,0,1-.256-1.95,3.93,3.93,0,0,1,.681-1.866,3.538,3.538,0,0,1,1.421-1.19,3.608,3.608,0,0,1,3.607.4,3.488,3.488,0,0,1,1.1,1.472,4.241,4.241,0,0,1-.425,3.816,3.486,3.486,0,0,1-1.4,1.192A3.6,3.6,0,0,1,102.294,371.282Zm6.762,2.706a0.991,0.991,0,0,0,.369-0.693l0.494-4.433-1.57-.9-0.612,2.065-0.339,3.042A1.032,1.032,0,0,0,109.056,373.988Zm9.213,0.373a4.967,4.967,0,0,0,1.885-1.009,0.983,0.983,0,0,0,.33-0.666,0.822,0.822,0,0,0-.312-0.655,0.8,0.8,0,0,0-.73-0.252,1.38,1.38,0,0,0-.657.372,2.51,2.51,0,0,1-1.177.6,6.464,6.464,0,0,1-1.777.133,3.513,3.513,0,0,1-1.724-.416,1.1,1.1,0,0,1-.558-0.985,1.2,1.2,0,0,1,.625-1,6.116,6.116,0,0,1,2.21-.654,6.665,6.665,0,0,0,2.91-1.085,2.451,2.451,0,0,0,1.024-1.907,2.581,2.581,0,0,0-.477-1.7,3.388,3.388,0,0,0-1.424-1.093,5.706,5.706,0,0,0-2.023-.439,6.263,6.263,0,0,0-2.427.345,4.17,4.17,0,0,0-1.74,1.116,0.775,0.775,0,0,0-.2.692,1,1,0,0,0,.442.64,0.707,0.707,0,0,0,.578.065,1.577,1.577,0,0,0,.676-0.351,3.049,3.049,0,0,1,1.177-.59,4.576,4.576,0,0,1,1.4-.159,3.352,3.352,0,0,1,1.465.374,1.006,1.006,0,0,1,.6.977,1.241,1.241,0,0,1-.523.988,4.6,4.6,0,0,1-1.868.589,10.4,10.4,0,0,0-2.358.6,3.914,3.914,0,0,0-1.525,1.014,2.4,2.4,0,0,0-.577,1.517,2.466,2.466,0,0,0,.5,1.623,3.727,3.727,0,0,0,1.512,1.157,6.1,6.1,0,0,0,2.231.487A7.256,7.256,0,0,0,118.269,374.361Zm11.769-.337A5.187,5.187,0,0,0,131.821,372a5.9,5.9,0,0,0,.6-2.845l0.779-.018a5.555,5.555,0,0,0-.8-2.822,5.527,5.527,0,0,0-9.557.224,5.567,5.567,0,0,0-.664,2.856,5.886,5.886,0,0,0,.737,2.814,5.187,5.187,0,0,0,1.876,1.937A5.067,5.067,0,0,0,130.038,374.024Zm-4.065-1.465a3.529,3.529,0,0,1-1.311-1.31,4.154,4.154,0,0,1-.09-3.839,3.533,3.533,0,0,1,1.248-1.37,3.608,3.608,0,0,1,3.629-.085,3.5,3.5,0,0,1,1.291,1.31,3.992,3.992,0,0,1,.5,1.919,3.942,3.942,0,0,1-.415,1.92,3.492,3.492,0,0,1-1.228,1.37A3.609,3.609,0,0,1,125.973,372.559Zm7.063,1.775a0.99,0.99,0,0,0,.273-0.737l-0.1-4.459-1.676-.681-0.33,2.129,0.072,3.059A1.032,1.032,0,0,0,133.036,374.334Zm10.339-.9a5.534,5.534,0,0,0,1.6-1.038,0.711,0.711,0,0,0,.258-0.648,0.95,0.95,0,0,0-.421-0.623,0.877,0.877,0,0,0-.628-0.15,1.135,1.135,0,0,0-.625.292,3.944,3.944,0,0,1-.994.628,3.778,3.778,0,0,1-1.242.352,4.02,4.02,0,0,1-2.058-.3,3.643,3.643,0,0,1-1.5-1.221,3.83,3.83,0,0,1-.687-1.9,4.479,4.479,0,0,1,.229-2,3.219,3.219,0,0,1,1.092-1.482,3.635,3.635,0,0,1,1.893-.686,2.917,2.917,0,0,1,2.932,1.434,4.3,4.3,0,0,1,.57,1.744l0.762-.637-7.962.771,0.154,1.592,8.022-.776a0.912,0.912,0,0,0,.633-0.313,0.835,0.835,0,0,0,.2-0.652,6.288,6.288,0,0,0-.856-2.72,4.5,4.5,0,0,0-1.885-1.726,5.012,5.012,0,0,0-2.734-.429,5.464,5.464,0,0,0-2.719.977,5.043,5.043,0,0,0-1.712,2.135A5.881,5.881,0,0,0,135.28,369a5.578,5.578,0,0,0,1,2.786,5.19,5.19,0,0,0,2.2,1.756A6.124,6.124,0,0,0,143.375,373.435Zm7.04-.926a1.01,1.01,0,0,0,.146-0.768l-1.286-7.165-0.484.249,4.482,4.479a1.362,1.362,0,0,0,1.166.491,1.342,1.342,0,0,0,.941-0.87l2.7-5.768-0.54-.066,1.286,7.166a1.04,1.04,0,0,0,1.862.407,1.01,1.01,0,0,0,.146-0.768l-1.573-8.76a0.962,0.962,0,0,0-1.184-.823,1.29,1.29,0,0,0-.953.8l-3.018,6.617-5.132-5.154a1.291,1.291,0,0,0-1.172-.419,1,1,0,0,0-.669.4,0.981,0.981,0,0,0-.155.78l1.573,8.76A1.04,1.04,0,0,0,150.415,372.509Zm21.59-4.682a1.011,1.011,0,0,0,.057-0.8l-3.284-10.141-0.349.218,8.125,8.28a1,1,0,0,0,1.1.294,1.033,1.033,0,0,0,.7-0.772l1.7-11.775-0.35.218,3.284,10.142a1.04,1.04,0,0,0,1.912.159,0.992,0.992,0,0,0,.067-0.8l-4.171-12.881a1,1,0,0,0-.517-0.621,1.017,1.017,0,0,0-.793-0.048,1.006,1.006,0,0,0-.7.816l-1.94,13.809,0.609-.2-9.819-10a1.056,1.056,0,0,0-1.662.255,1,1,0,0,0-.055.806l4.171,12.881A1.047,1.047,0,0,0,172.005,367.827Zm22-7.693a5.477,5.477,0,0,0,2.166-1.668,4.593,4.593,0,0,0,.935-2.33,4.959,4.959,0,0,0-.455-2.592,4.414,4.414,0,0,0-3.92-2.708,5.7,5.7,0,0,0-2.671.546L187,352.763l-2.088-4.631a0.869,0.869,0,0,0-.544-0.5,1.08,1.08,0,0,0-.791.071,1.094,1.094,0,0,0-.568.541,0.857,0.857,0,0,0,.006.743l5.607,12.435a1.025,1.025,0,0,0,1.375.521Zm-6.269-5.73,3.063-1.381a3.979,3.979,0,0,1,1.6-.383,2.45,2.45,0,0,1,1.389.405,3,3,0,0,1,1.034,1.322,3.165,3.165,0,0,1,.314,1.668,2.56,2.56,0,0,1-.588,1.373,3.657,3.657,0,0,1-1.337.976l-3.063,1.381Zm14.56,1.663a1.027,1.027,0,0,0-.039-0.794L196.69,342.93a1.016,1.016,0,0,0-.572-0.565,0.992,0.992,0,0,0-.785.036,1.023,1.023,0,0,0-.555.568,1,1,0,0,0,.035.807l5.565,12.344a1.023,1.023,0,0,0,1.375.52A0.97,0.97,0,0,0,202.3,356.067Z" transform="translate(-38 -323.688)"/>
</svg>
